<?xml version="1.0" encoding="UTF-8" standalone="no"?><svg xmlns="http://www.w3.org/2000/svg" xmlns:xlink="http://www.w3.org/1999/xlink" contentStyleType="text/css" height="791px" preserveAspectRatio="none" style="width:3791px;height:791px;background:#7B68EE;" version="1.1" viewBox="0 0 3791 791" width="3791px" zoomAndPan="magnify"><defs/><g><!--MD5=[fd20ec58b7570fc6f3219eb9b2bb932a]
cluster org.renaultleat.consensus--><g id="cluster_org.renaultleat.consensus"><path d="M558.58,189.9336 L1149.58,189.9336 A3.75,3.75 0 0 1 1152.08,192.4336 L1159.08,242.4961 L1644.58,242.4961 A2.5,2.5 0 0 1 1647.08,244.9961 L1647.08,495.4336 A2.5,2.5 0 0 1 1644.58,497.9336 L558.58,497.9336 A2.5,2.5 0 0 1 556.08,495.4336 L556.08,192.4336 A2.5,2.5 0 0 1 558.58,189.9336 " fill="none" style="stroke:#000000;stroke-width:1.5;"/><line style="stroke:#000000;stroke-width:1.5;" x1="556.08" x2="1159.08" y1="242.4961" y2="242.4961"/><text fill="#000000" font-family="sans-serif" font-size="40" font-weight="bold" lengthAdjust="spacing" textLength="590" x="560.08" y="229.0625">org.renaultleat.consensus</text></g><!--MD5=[eb3ee92a8381fbf23043ab7f94c29bda]
cluster org.renaultleat.network--><g id="cluster_org.renaultleat.network"><path d="M2668.58,189.9336 L3210.58,189.9336 A3.75,3.75 0 0 1 3213.08,192.4336 L3220.08,242.4961 L3582.58,242.4961 A2.5,2.5 0 0 1 3585.08,244.9961 L3585.08,495.4336 A2.5,2.5 0 0 1 3582.58,497.9336 L2668.58,497.9336 A2.5,2.5 0 0 1 2666.08,495.4336 L2666.08,192.4336 A2.5,2.5 0 0 1 2668.58,189.9336 " fill="none" style="stroke:#000000;stroke-width:1.5;"/><line style="stroke:#000000;stroke-width:1.5;" x1="2666.08" x2="3220.08" y1="242.4961" y2="242.4961"/><text fill="#000000" font-family="sans-serif" font-size="40" font-weight="bold" lengthAdjust="spacing" textLength="541" x="2670.08" y="229.0625">org.renaultleat.network</text></g><!--MD5=[0adbbcd27650d988717e92397e83c1c7]
cluster org.renaultleat.properties--><g id="cluster_org.renaultleat.properties"><path d="M1272.58,11.9336 L1865.58,11.9336 A3.75,3.75 0 0 1 1868.08,14.4336 L1875.08,64.4961 L2058.58,64.4961 A2.5,2.5 0 0 1 2061.08,66.9961 L2061.08,163.4336 A2.5,2.5 0 0 1 2058.58,165.9336 L1272.58,165.9336 A2.5,2.5 0 0 1 1270.08,163.4336 L1270.08,14.4336 A2.5,2.5 0 0 1 1272.58,11.9336 " fill="none" style="stroke:#000000;stroke-width:1.5;"/><line style="stroke:#000000;stroke-width:1.5;" x1="1270.08" x2="1875.08" y1="64.4961" y2="64.4961"/><text fill="#000000" font-family="sans-serif" font-size="40" font-weight="bold" lengthAdjust="spacing" textLength="592" x="1274.08" y="51.0625">org.renaultleat.properties</text></g><!--MD5=[405c190b41cd6df70be34dd0e93c7f00]
cluster org.renaultleat.node--><g id="cluster_org.renaultleat.node"><path d="M921.58,630.9336 L1389.58,630.9336 A3.75,3.75 0 0 1 1392.08,633.4336 L1399.08,683.4961 L2046.58,683.4961 A2.5,2.5 0 0 1 2049.08,685.9961 L2049.08,782.4336 A2.5,2.5 0 0 1 2046.58,784.9336 L921.58,784.9336 A2.5,2.5 0 0 1 919.08,782.4336 L919.08,633.4336 A2.5,2.5 0 0 1 921.58,630.9336 " fill="none" style="stroke:#000000;stroke-width:1.5;"/><line style="stroke:#000000;stroke-width:1.5;" x1="919.08" x2="1399.08" y1="683.4961" y2="683.4961"/><text fill="#000000" font-family="sans-serif" font-size="40" font-weight="bold" lengthAdjust="spacing" textLength="467" x="923.08" y="670.0625">org.renaultleat.node</text></g><!--MD5=[a16a3799a95c105a63f974298999c0eb]
cluster org.renaultleat.api--><g id="cluster_org.renaultleat.api"><path d="M11.58,11.9336 L438.58,11.9336 A3.75,3.75 0 0 1 441.08,14.4336 L448.08,64.4961 L488.58,64.4961 A2.5,2.5 0 0 1 491.08,66.9961 L491.08,495.4336 A2.5,2.5 0 0 1 488.58,497.9336 L11.58,497.9336 A2.5,2.5 0 0 1 9.08,495.4336 L9.08,14.4336 A2.5,2.5 0 0 1 11.58,11.9336 " fill="none" style="stroke:#000000;stroke-width:1.5;"/><line style="stroke:#000000;stroke-width:1.5;" x1="9.08" x2="448.08" y1="64.4961" y2="64.4961"/><text fill="#000000" font-family="sans-serif" font-size="40" font-weight="bold" lengthAdjust="spacing" textLength="426" x="13.08" y="51.0625">org.renaultleat.api</text></g><!--MD5=[736b4f1b1392848c361634a8cbde24e7]
cluster org.renaultleat.crypto--><g id="cluster_org.renaultleat.crypto"><path d="M2464.58,11.9336 L2966.58,11.9336 A3.75,3.75 0 0 1 2969.08,14.4336 L2976.08,64.4961 L3204.58,64.4961 A2.5,2.5 0 0 1 3207.08,66.9961 L3207.08,163.4336 A2.5,2.5 0 0 1 3204.58,165.9336 L2464.58,165.9336 A2.5,2.5 0 0 1 2462.08,163.4336 L2462.08,14.4336 A2.5,2.5 0 0 1 2464.58,11.9336 " fill="none" style="stroke:#000000;stroke-width:1.5;"/><line style="stroke:#000000;stroke-width:1.5;" x1="2462.08" x2="2976.08" y1="64.4961" y2="64.4961"/><text fill="#000000" font-family="sans-serif" font-size="40" font-weight="bold" lengthAdjust="spacing" textLength="501" x="2466.08" y="51.0625">org.renaultleat.crypto</text></g><!--MD5=[93bb0e3d2c9ea0f9e8ab02b5e20dcba2]
cluster org.renaultleat.chain--><g id="cluster_org.renaultleat.chain"><path d="M2075.58,343.9336 L2553.58,343.9336 A3.75,3.75 0 0 1 2556.08,346.4336 L2563.08,396.4961 L2639.58,396.4961 A2.5,2.5 0 0 1 2642.08,398.9961 L2642.08,782.4336 A2.5,2.5 0 0 1 2639.58,784.9336 L2075.58,784.9336 A2.5,2.5 0 0 1 2073.08,782.4336 L2073.08,346.4336 A2.5,2.5 0 0 1 2075.58,343.9336 " fill="none" style="stroke:#000000;stroke-width:1.5;"/><line style="stroke:#000000;stroke-width:1.5;" x1="2073.08" x2="2563.08" y1="396.4961" y2="396.4961"/><text fill="#000000" font-family="sans-serif" font-size="40" font-weight="bold" lengthAdjust="spacing" textLength="477" x="2077.08" y="383.0625">org.renaultleat.chain</text></g><!--MD5=[bea5b0d46523efab5ea1c1d339f396f0]
class Message--><g id="elem_Message"><rect codeLine="8" fill="#F1F1F1" height="72.5625" id="Message" rx="2.5" ry="2.5" style="stroke:#181818;stroke-width:0.5;" width="225" x="1405.58" y="254.9336"/><ellipse cx="1428.58" cy="283.2148" fill="#ADD1B2" rx="19" ry="19" style="stroke:#181818;stroke-width:1.0;"/><path d="M1438.0331,292.6836 Q1436.5331,293.4805 1434.955,293.8711 Q1433.3769,294.2773 1431.5956,294.2773 Q1425.9863,294.2773 1422.8925,290.3242 Q1419.7988,286.3555 1419.7988,279.168 Q1419.7988,272.0117 1422.9081,268.0273 Q1426.0331,264.0273 1431.5956,264.0273 Q1433.3769,264.0273 1434.955,264.4336 Q1436.5331,264.8242 1438.0331,265.6211 L1438.0331,269.668 Q1436.5956,268.4805 1434.9238,267.8555 Q1433.2675,267.2305 1431.5956,267.2305 Q1427.7519,267.2305 1425.83,270.1992 Q1423.9238,273.168 1423.9238,279.168 Q1423.9238,285.1367 1425.83,288.1055 Q1427.7519,291.0742 1431.5956,291.0742 Q1433.3144,291.0742 1434.955,290.4492 Q1436.6113,289.8242 1438.0331,288.6367 L1438.0331,292.6836 Z " fill="#000000"/><text fill="#000000" font-family="sans-serif" font-size="40" lengthAdjust="spacing" textLength="177" x="1450.58" y="297.0625">Message</text><line style="stroke:#181818;stroke-width:0.5;" x1="1406.58" x2="1629.58" y1="311.4961" y2="311.4961"/><line style="stroke:#181818;stroke-width:0.5;" x1="1406.58" x2="1629.58" y1="319.4961" y2="319.4961"/></g><!--MD5=[783c5a55039a6aaff3586e7a5f91c2eb]
class BFTMessageHandler--><g id="elem_BFTMessageHandler"><rect codeLine="11" fill="#F1F1F1" height="72.5625" id="BFTMessageHandler" rx="2.5" ry="2.5" style="stroke:#181818;stroke-width:0.5;" width="456" x="914.08" y="254.9336"/><ellipse cx="937.08" cy="283.2148" fill="#ADD1B2" rx="19" ry="19" style="stroke:#181818;stroke-width:1.0;"/><path d="M946.5331,292.6836 Q945.0331,293.4805 943.455,293.8711 Q941.8769,294.2773 940.0956,294.2773 Q934.4863,294.2773 931.3925,290.3242 Q928.2988,286.3555 928.2988,279.168 Q928.2988,272.0117 931.4081,268.0273 Q934.5331,264.0273 940.0956,264.0273 Q941.8769,264.0273 943.455,264.4336 Q945.0331,264.8242 946.5331,265.6211 L946.5331,269.668 Q945.0956,268.4805 943.4238,267.8555 Q941.7675,267.2305 940.0956,267.2305 Q936.2519,267.2305 934.33,270.1992 Q932.4238,273.168 932.4238,279.168 Q932.4238,285.1367 934.33,288.1055 Q936.2519,291.0742 940.0956,291.0742 Q941.8144,291.0742 943.455,290.4492 Q945.1113,289.8242 946.5331,288.6367 L946.5331,292.6836 Z " fill="#000000"/><text fill="#000000" font-family="sans-serif" font-size="40" lengthAdjust="spacing" textLength="408" x="959.08" y="297.0625">BFTMessageHandler</text><line style="stroke:#181818;stroke-width:0.5;" x1="915.08" x2="1369.08" y1="311.4961" y2="311.4961"/><line style="stroke:#181818;stroke-width:0.5;" x1="915.08" x2="1369.08" y1="319.4961" y2="319.4961"/></g><!--MD5=[f2af29731e4f0888f8dde78e6ea58f79]
class BFTMessagePool--><g id="elem_BFTMessagePool"><rect codeLine="14" fill="#F1F1F1" height="72.5625" id="BFTMessagePool" rx="2.5" ry="2.5" style="stroke:#181818;stroke-width:0.5;" width="382" x="1107.08" y="408.9336"/><ellipse cx="1130.08" cy="437.2148" fill="#ADD1B2" rx="19" ry="19" style="stroke:#181818;stroke-width:1.0;"/><path d="M1139.5331,446.6836 Q1138.0331,447.4805 1136.455,447.8711 Q1134.8769,448.2773 1133.0956,448.2773 Q1127.4863,448.2773 1124.3925,444.3242 Q1121.2988,440.3555 1121.2988,433.168 Q1121.2988,426.0117 1124.4081,422.0273 Q1127.5331,418.0273 1133.0956,418.0273 Q1134.8769,418.0273 1136.455,418.4336 Q1138.0331,418.8242 1139.5331,419.6211 L1139.5331,423.668 Q1138.0956,422.4805 1136.4238,421.8555 Q1134.7675,421.2305 1133.0956,421.2305 Q1129.2519,421.2305 1127.33,424.1992 Q1125.4238,427.168 1125.4238,433.168 Q1125.4238,439.1367 1127.33,442.1055 Q1129.2519,445.0742 1133.0956,445.0742 Q1134.8144,445.0742 1136.455,444.4492 Q1138.1113,443.8242 1139.5331,442.6367 L1139.5331,446.6836 Z " fill="#000000"/><text fill="#000000" font-family="sans-serif" font-size="40" lengthAdjust="spacing" textLength="334" x="1152.08" y="451.0625">BFTMessagePool</text><line style="stroke:#181818;stroke-width:0.5;" x1="1108.08" x2="1488.08" y1="465.4961" y2="465.4961"/><line style="stroke:#181818;stroke-width:0.5;" x1="1108.08" x2="1488.08" y1="473.4961" y2="473.4961"/></g><!--MD5=[53137ec93420175360498e8c70990a98]
class Synchronizer--><g id="elem_Synchronizer"><rect codeLine="17" fill="#F1F1F1" height="72.5625" id="Synchronizer" rx="2.5" ry="2.5" style="stroke:#181818;stroke-width:0.5;" width="307" x="571.58" y="254.9336"/><ellipse cx="594.58" cy="283.2148" fill="#ADD1B2" rx="19" ry="19" style="stroke:#181818;stroke-width:1.0;"/><path d="M604.0331,292.6836 Q602.5331,293.4805 600.955,293.8711 Q599.3769,294.2773 597.5956,294.2773 Q591.9863,294.2773 588.8925,290.3242 Q585.7988,286.3555 585.7988,279.168 Q585.7988,272.0117 588.9081,268.0273 Q592.0331,264.0273 597.5956,264.0273 Q599.3769,264.0273 600.955,264.4336 Q602.5331,264.8242 604.0331,265.6211 L604.0331,269.668 Q602.5956,268.4805 600.9238,267.8555 Q599.2675,267.2305 597.5956,267.2305 Q593.7519,267.2305 591.83,270.1992 Q589.9238,273.168 589.9238,279.168 Q589.9238,285.1367 591.83,288.1055 Q593.7519,291.0742 597.5956,291.0742 Q599.3144,291.0742 600.955,290.4492 Q602.6113,289.8242 604.0331,288.6367 L604.0331,292.6836 Z " fill="#000000"/><text fill="#000000" font-family="sans-serif" font-size="40" lengthAdjust="spacing" textLength="259" x="616.58" y="297.0625">Synchronizer</text><line style="stroke:#181818;stroke-width:0.5;" x1="572.58" x2="877.58" y1="311.4961" y2="311.4961"/><line style="stroke:#181818;stroke-width:0.5;" x1="572.58" x2="877.58" y1="319.4961" y2="319.4961"/></g><!--MD5=[e9d32aba5855cd2d02663dab53fb2d9c]
class NetworkTopologyGenerator--><g id="elem_NetworkTopologyGenerator"><rect codeLine="22" fill="#F1F1F1" height="72.5625" id="NetworkTopologyGenerator" rx="2.5" ry="2.5" style="stroke:#181818;stroke-width:0.5;" width="599" x="2969.58" y="254.9336"/><ellipse cx="2992.58" cy="283.2148" fill="#ADD1B2" rx="19" ry="19" style="stroke:#181818;stroke-width:1.0;"/><path d="M3002.0331,292.6836 Q3000.5331,293.4805 2998.955,293.8711 Q2997.3769,294.2773 2995.5956,294.2773 Q2989.9863,294.2773 2986.8925,290.3242 Q2983.7988,286.3555 2983.7988,279.168 Q2983.7988,272.0117 2986.9081,268.0273 Q2990.0331,264.0273 2995.5956,264.0273 Q2997.3769,264.0273 2998.955,264.4336 Q3000.5331,264.8242 3002.0331,265.6211 L3002.0331,269.668 Q3000.5956,268.4805 2998.9238,267.8555 Q2997.2675,267.2305 2995.5956,267.2305 Q2991.7519,267.2305 2989.83,270.1992 Q2987.9238,273.168 2987.9238,279.168 Q2987.9238,285.1367 2989.83,288.1055 Q2991.7519,291.0742 2995.5956,291.0742 Q2997.3144,291.0742 2998.955,290.4492 Q3000.6113,289.8242 3002.0331,288.6367 L3002.0331,292.6836 Z " fill="#000000"/><text fill="#000000" font-family="sans-serif" font-size="40" lengthAdjust="spacing" textLength="551" x="3014.58" y="297.0625">NetworkTopologyGenerator</text><line style="stroke:#181818;stroke-width:0.5;" x1="2970.58" x2="3567.58" y1="311.4961" y2="311.4961"/><line style="stroke:#181818;stroke-width:0.5;" x1="2970.58" x2="3567.58" y1="319.4961" y2="319.4961"/></g><!--MD5=[518b6b5e0f80fd3873a9eea4dea400ea]
class P2PServer--><g id="elem_P2PServer"><rect codeLine="25" fill="#F1F1F1" height="72.5625" id="P2PServer" rx="2.5" ry="2.5" style="stroke:#181818;stroke-width:0.5;" width="252" x="2682.08" y="254.9336"/><ellipse cx="2705.08" cy="283.2148" fill="#ADD1B2" rx="19" ry="19" style="stroke:#181818;stroke-width:1.0;"/><path d="M2714.5331,292.6836 Q2713.0331,293.4805 2711.455,293.8711 Q2709.8769,294.2773 2708.0956,294.2773 Q2702.4863,294.2773 2699.3925,290.3242 Q2696.2988,286.3555 2696.2988,279.168 Q2696.2988,272.0117 2699.4081,268.0273 Q2702.5331,264.0273 2708.0956,264.0273 Q2709.8769,264.0273 2711.455,264.4336 Q2713.0331,264.8242 2714.5331,265.6211 L2714.5331,269.668 Q2713.0956,268.4805 2711.4238,267.8555 Q2709.7675,267.2305 2708.0956,267.2305 Q2704.2519,267.2305 2702.33,270.1992 Q2700.4238,273.168 2700.4238,279.168 Q2700.4238,285.1367 2702.33,288.1055 Q2704.2519,291.0742 2708.0956,291.0742 Q2709.8144,291.0742 2711.455,290.4492 Q2713.1113,289.8242 2714.5331,288.6367 L2714.5331,292.6836 Z " fill="#000000"/><text fill="#000000" font-family="sans-serif" font-size="40" lengthAdjust="spacing" textLength="204" x="2727.08" y="297.0625">P2PServer</text><line style="stroke:#181818;stroke-width:0.5;" x1="2683.08" x2="2933.08" y1="311.4961" y2="311.4961"/><line style="stroke:#181818;stroke-width:0.5;" x1="2683.08" x2="2933.08" y1="319.4961" y2="319.4961"/></g><!--MD5=[03f89b227da79a2fe071c5bef7e7b2c4]
class QueueResource--><g id="elem_QueueResource"><rect codeLine="28" fill="#F1F1F1" height="72.5625" id="QueueResource" rx="2.5" ry="2.5" style="stroke:#181818;stroke-width:0.5;" width="365" x="3012.58" y="408.9336"/><ellipse cx="3035.58" cy="437.2148" fill="#ADD1B2" rx="19" ry="19" style="stroke:#181818;stroke-width:1.0;"/><path d="M3045.0331,446.6836 Q3043.5331,447.4805 3041.955,447.8711 Q3040.3769,448.2773 3038.5956,448.2773 Q3032.9863,448.2773 3029.8925,444.3242 Q3026.7988,440.3555 3026.7988,433.168 Q3026.7988,426.0117 3029.9081,422.0273 Q3033.0331,418.0273 3038.5956,418.0273 Q3040.3769,418.0273 3041.955,418.4336 Q3043.5331,418.8242 3045.0331,419.6211 L3045.0331,423.668 Q3043.5956,422.4805 3041.9238,421.8555 Q3040.2675,421.2305 3038.5956,421.2305 Q3034.7519,421.2305 3032.83,424.1992 Q3030.9238,427.168 3030.9238,433.168 Q3030.9238,439.1367 3032.83,442.1055 Q3034.7519,445.0742 3038.5956,445.0742 Q3040.3144,445.0742 3041.955,444.4492 Q3043.6113,443.8242 3045.0331,442.6367 L3045.0331,446.6836 Z " fill="#000000"/><text fill="#000000" font-family="sans-serif" font-size="40" lengthAdjust="spacing" textLength="317" x="3057.58" y="451.0625">QueueResource</text><line style="stroke:#181818;stroke-width:0.5;" x1="3013.58" x2="3376.58" y1="465.4961" y2="465.4961"/><line style="stroke:#181818;stroke-width:0.5;" x1="3013.58" x2="3376.58" y1="473.4961" y2="473.4961"/></g><!--MD5=[d56245bddce73c857cdb7966439e0314]
class NodeDevProperty--><g id="elem_NodeDevProperty"><rect codeLine="33" fill="#F1F1F1" height="72.5625" id="NodeDevProperty" rx="2.5" ry="2.5" style="stroke:#181818;stroke-width:0.5;" width="402" x="1643.08" y="76.9336"/><ellipse cx="1666.08" cy="105.2148" fill="#ADD1B2" rx="19" ry="19" style="stroke:#181818;stroke-width:1.0;"/><path d="M1675.5331,114.6836 Q1674.0331,115.4805 1672.455,115.8711 Q1670.8769,116.2773 1669.0956,116.2773 Q1663.4863,116.2773 1660.3925,112.3242 Q1657.2988,108.3555 1657.2988,101.168 Q1657.2988,94.0117 1660.4081,90.0273 Q1663.5331,86.0273 1669.0956,86.0273 Q1670.8769,86.0273 1672.455,86.4336 Q1674.0331,86.8242 1675.5331,87.6211 L1675.5331,91.668 Q1674.0956,90.4805 1672.4238,89.8555 Q1670.7675,89.2305 1669.0956,89.2305 Q1665.2519,89.2305 1663.33,92.1992 Q1661.4238,95.168 1661.4238,101.168 Q1661.4238,107.1367 1663.33,110.1055 Q1665.2519,113.0742 1669.0956,113.0742 Q1670.8144,113.0742 1672.455,112.4492 Q1674.1113,111.8242 1675.5331,110.6367 L1675.5331,114.6836 Z " fill="#000000"/><text fill="#000000" font-family="sans-serif" font-size="40" lengthAdjust="spacing" textLength="354" x="1688.08" y="119.0625">NodeDevProperty</text><line style="stroke:#181818;stroke-width:0.5;" x1="1644.08" x2="2044.08" y1="133.4961" y2="133.4961"/><line style="stroke:#181818;stroke-width:0.5;" x1="1644.08" x2="2044.08" y1="141.4961" y2="141.4961"/></g><!--MD5=[89a6ba7922817c3dda9c7b1866f2df6c]
class NodeProperty--><g id="elem_NodeProperty"><rect codeLine="36" fill="#F1F1F1" height="72.5625" id="NodeProperty" rx="2.5" ry="2.5" style="stroke:#181818;stroke-width:0.5;" width="322" x="1286.08" y="76.9336"/><ellipse cx="1309.08" cy="105.2148" fill="#ADD1B2" rx="19" ry="19" style="stroke:#181818;stroke-width:1.0;"/><path d="M1318.5331,114.6836 Q1317.0331,115.4805 1315.455,115.8711 Q1313.8769,116.2773 1312.0956,116.2773 Q1306.4863,116.2773 1303.3925,112.3242 Q1300.2988,108.3555 1300.2988,101.168 Q1300.2988,94.0117 1303.4081,90.0273 Q1306.5331,86.0273 1312.0956,86.0273 Q1313.8769,86.0273 1315.455,86.4336 Q1317.0331,86.8242 1318.5331,87.6211 L1318.5331,91.668 Q1317.0956,90.4805 1315.4238,89.8555 Q1313.7675,89.2305 1312.0956,89.2305 Q1308.2519,89.2305 1306.33,92.1992 Q1304.4238,95.168 1304.4238,101.168 Q1304.4238,107.1367 1306.33,110.1055 Q1308.2519,113.0742 1312.0956,113.0742 Q1313.8144,113.0742 1315.455,112.4492 Q1317.1113,111.8242 1318.5331,110.6367 L1318.5331,114.6836 Z " fill="#000000"/><text fill="#000000" font-family="sans-serif" font-size="40" lengthAdjust="spacing" textLength="274" x="1331.08" y="119.0625">NodeProperty</text><line style="stroke:#181818;stroke-width:0.5;" x1="1287.08" x2="1607.08" y1="133.4961" y2="133.4961"/><line style="stroke:#181818;stroke-width:0.5;" x1="1287.08" x2="1607.08" y1="141.4961" y2="141.4961"/></g><!--MD5=[f59d84919a43af818e25d7c66b75ad04]
class NonValidator--><g id="elem_NonValidator"><rect codeLine="41" fill="#F1F1F1" height="72.5625" id="NonValidator" rx="2.5" ry="2.5" style="stroke:#181818;stroke-width:0.5;" width="307" x="1145.58" y="695.9336"/><ellipse cx="1168.58" cy="724.2148" fill="#ADD1B2" rx="19" ry="19" style="stroke:#181818;stroke-width:1.0;"/><path d="M1178.0331,733.6836 Q1176.5331,734.4805 1174.955,734.8711 Q1173.3769,735.2773 1171.5956,735.2773 Q1165.9863,735.2773 1162.8925,731.3242 Q1159.7988,727.3555 1159.7988,720.168 Q1159.7988,713.0117 1162.9081,709.0273 Q1166.0331,705.0273 1171.5956,705.0273 Q1173.3769,705.0273 1174.955,705.4336 Q1176.5331,705.8242 1178.0331,706.6211 L1178.0331,710.668 Q1176.5956,709.4805 1174.9238,708.8555 Q1173.2675,708.2305 1171.5956,708.2305 Q1167.7519,708.2305 1165.83,711.1992 Q1163.9238,714.168 1163.9238,720.168 Q1163.9238,726.1367 1165.83,729.1055 Q1167.7519,732.0742 1171.5956,732.0742 Q1173.3144,732.0742 1174.955,731.4492 Q1176.6113,730.8242 1178.0331,729.6367 L1178.0331,733.6836 Z " fill="#000000"/><text fill="#000000" font-family="sans-serif" font-size="40" lengthAdjust="spacing" textLength="259" x="1190.58" y="738.0625">NonValidator</text><line style="stroke:#181818;stroke-width:0.5;" x1="1146.58" x2="1451.58" y1="752.4961" y2="752.4961"/><line style="stroke:#181818;stroke-width:0.5;" x1="1146.58" x2="1451.58" y1="760.4961" y2="760.4961"/></g><!--MD5=[4555bb1b0911a5adf28ce6dbe60fed2e]
class Transaction--><g id="elem_Transaction"><rect codeLine="44" fill="#F1F1F1" height="72.5625" id="Transaction" rx="2.5" ry="2.5" style="stroke:#181818;stroke-width:0.5;" width="282" x="1751.08" y="695.9336"/><ellipse cx="1774.08" cy="724.2148" fill="#ADD1B2" rx="19" ry="19" style="stroke:#181818;stroke-width:1.0;"/><path d="M1783.5331,733.6836 Q1782.0331,734.4805 1780.455,734.8711 Q1778.8769,735.2773 1777.0956,735.2773 Q1771.4863,735.2773 1768.3925,731.3242 Q1765.2988,727.3555 1765.2988,720.168 Q1765.2988,713.0117 1768.4081,709.0273 Q1771.5331,705.0273 1777.0956,705.0273 Q1778.8769,705.0273 1780.455,705.4336 Q1782.0331,705.8242 1783.5331,706.6211 L1783.5331,710.668 Q1782.0956,709.4805 1780.4238,708.8555 Q1778.7675,708.2305 1777.0956,708.2305 Q1773.2519,708.2305 1771.33,711.1992 Q1769.4238,714.168 1769.4238,720.168 Q1769.4238,726.1367 1771.33,729.1055 Q1773.2519,732.0742 1777.0956,732.0742 Q1778.8144,732.0742 1780.455,731.4492 Q1782.1113,730.8242 1783.5331,729.6367 L1783.5331,733.6836 Z " fill="#000000"/><text fill="#000000" font-family="sans-serif" font-size="40" lengthAdjust="spacing" textLength="234" x="1796.08" y="738.0625">Transaction</text><line style="stroke:#181818;stroke-width:0.5;" x1="1752.08" x2="2032.08" y1="752.4961" y2="752.4961"/><line style="stroke:#181818;stroke-width:0.5;" x1="1752.08" x2="2032.08" y1="760.4961" y2="760.4961"/></g><!--MD5=[ca2d93c45117619035e2f39704bd7f41]
class Validator--><g id="elem_Validator"><rect codeLine="47" fill="#F1F1F1" height="72.5625" id="Validator" rx="2.5" ry="2.5" style="stroke:#181818;stroke-width:0.5;" width="228" x="1488.08" y="695.9336"/><ellipse cx="1511.08" cy="724.2148" fill="#ADD1B2" rx="19" ry="19" style="stroke:#181818;stroke-width:1.0;"/><path d="M1520.5331,733.6836 Q1519.0331,734.4805 1517.455,734.8711 Q1515.8769,735.2773 1514.0956,735.2773 Q1508.4863,735.2773 1505.3925,731.3242 Q1502.2988,727.3555 1502.2988,720.168 Q1502.2988,713.0117 1505.4081,709.0273 Q1508.5331,705.0273 1514.0956,705.0273 Q1515.8769,705.0273 1517.455,705.4336 Q1519.0331,705.8242 1520.5331,706.6211 L1520.5331,710.668 Q1519.0956,709.4805 1517.4238,708.8555 Q1515.7675,708.2305 1514.0956,708.2305 Q1510.2519,708.2305 1508.33,711.1992 Q1506.4238,714.168 1506.4238,720.168 Q1506.4238,726.1367 1508.33,729.1055 Q1510.2519,732.0742 1514.0956,732.0742 Q1515.8144,732.0742 1517.455,731.4492 Q1519.1113,730.8242 1520.5331,729.6367 L1520.5331,733.6836 Z " fill="#000000"/><text fill="#000000" font-family="sans-serif" font-size="40" lengthAdjust="spacing" textLength="180" x="1533.08" y="738.0625">Validator</text><line style="stroke:#181818;stroke-width:0.5;" x1="1489.08" x2="1715.08" y1="752.4961" y2="752.4961"/><line style="stroke:#181818;stroke-width:0.5;" x1="1489.08" x2="1715.08" y1="760.4961" y2="760.4961"/></g><!--MD5=[9f070bf9f108c27faa2eb76515c78fb3]
class Wallet--><g id="elem_Wallet"><rect codeLine="50" fill="#F1F1F1" height="72.5625" id="Wallet" rx="2.5" ry="2.5" style="stroke:#181818;stroke-width:0.5;" width="176" x="935.08" y="695.9336"/><ellipse cx="958.08" cy="724.2148" fill="#ADD1B2" rx="19" ry="19" style="stroke:#181818;stroke-width:1.0;"/><path d="M967.5331,733.6836 Q966.0331,734.4805 964.455,734.8711 Q962.8769,735.2773 961.0956,735.2773 Q955.4863,735.2773 952.3925,731.3242 Q949.2988,727.3555 949.2988,720.168 Q949.2988,713.0117 952.4081,709.0273 Q955.5331,705.0273 961.0956,705.0273 Q962.8769,705.0273 964.455,705.4336 Q966.0331,705.8242 967.5331,706.6211 L967.5331,710.668 Q966.0956,709.4805 964.4238,708.8555 Q962.7675,708.2305 961.0956,708.2305 Q957.2519,708.2305 955.33,711.1992 Q953.4238,714.168 953.4238,720.168 Q953.4238,726.1367 955.33,729.1055 Q957.2519,732.0742 961.0956,732.0742 Q962.8144,732.0742 964.455,731.4492 Q966.1113,730.8242 967.5331,729.6367 L967.5331,733.6836 Z " fill="#000000"/><text fill="#000000" font-family="sans-serif" font-size="40" lengthAdjust="spacing" textLength="128" x="980.08" y="738.0625">Wallet</text><line style="stroke:#181818;stroke-width:0.5;" x1="936.08" x2="1110.08" y1="752.4961" y2="752.4961"/><line style="stroke:#181818;stroke-width:0.5;" x1="936.08" x2="1110.08" y1="760.4961" y2="760.4961"/></g><!--MD5=[91dfbf3fdccf535f64556311969c93b8]
class Simulator_controller--><g id="elem_Simulator_controller"><rect codeLine="55" fill="#F1F1F1" height="72.5625" id="Simulator_controller" rx="2.5" ry="2.5" style="stroke:#181818;stroke-width:0.5;" width="450" x="25.08" y="76.9336"/><ellipse cx="48.08" cy="105.2148" fill="#ADD1B2" rx="19" ry="19" style="stroke:#181818;stroke-width:1.0;"/><path d="M57.5331,114.6836 Q56.0331,115.4805 54.455,115.8711 Q52.8769,116.2773 51.0956,116.2773 Q45.4863,116.2773 42.3925,112.3242 Q39.2988,108.3555 39.2988,101.168 Q39.2988,94.0117 42.4081,90.0273 Q45.5331,86.0273 51.0956,86.0273 Q52.8769,86.0273 54.455,86.4336 Q56.0331,86.8242 57.5331,87.6211 L57.5331,91.668 Q56.0956,90.4805 54.4238,89.8555 Q52.7675,89.2305 51.0956,89.2305 Q47.2519,89.2305 45.33,92.1992 Q43.4238,95.168 43.4238,101.168 Q43.4238,107.1367 45.33,110.1055 Q47.2519,113.0742 51.0956,113.0742 Q52.8144,113.0742 54.455,112.4492 Q56.1113,111.8242 57.5331,110.6367 L57.5331,114.6836 Z " fill="#000000"/><text fill="#000000" font-family="sans-serif" font-size="40" lengthAdjust="spacing" textLength="402" x="70.08" y="119.0625">Simulator_controller</text><line style="stroke:#181818;stroke-width:0.5;" x1="26.08" x2="474.08" y1="133.4961" y2="133.4961"/><line style="stroke:#181818;stroke-width:0.5;" x1="26.08" x2="474.08" y1="141.4961" y2="141.4961"/></g><!--MD5=[2c0e6e5ec2734dd917b8398ef3c0e9b9]
class Simulator_result--><g id="elem_Simulator_result"><rect codeLine="58" fill="#F1F1F1" height="72.5625" id="Simulator_result" rx="2.5" ry="2.5" style="stroke:#181818;stroke-width:0.5;" width="374" x="51.08" y="408.9336"/><ellipse cx="74.08" cy="437.2148" fill="#ADD1B2" rx="19" ry="19" style="stroke:#181818;stroke-width:1.0;"/><path d="M83.5331,446.6836 Q82.0331,447.4805 80.455,447.8711 Q78.8769,448.2773 77.0956,448.2773 Q71.4863,448.2773 68.3925,444.3242 Q65.2988,440.3555 65.2988,433.168 Q65.2988,426.0117 68.4081,422.0273 Q71.5331,418.0273 77.0956,418.0273 Q78.8769,418.0273 80.455,418.4336 Q82.0331,418.8242 83.5331,419.6211 L83.5331,423.668 Q82.0956,422.4805 80.4238,421.8555 Q78.7675,421.2305 77.0956,421.2305 Q73.2519,421.2305 71.33,424.1992 Q69.4238,427.168 69.4238,433.168 Q69.4238,439.1367 71.33,442.1055 Q73.2519,445.0742 77.0956,445.0742 Q78.8144,445.0742 80.455,444.4492 Q82.1113,443.8242 83.5331,442.6367 L83.5331,446.6836 Z " fill="#000000"/><text fill="#000000" font-family="sans-serif" font-size="40" lengthAdjust="spacing" textLength="326" x="96.08" y="451.0625">Simulator_result</text><line style="stroke:#181818;stroke-width:0.5;" x1="52.08" x2="424.08" y1="465.4961" y2="465.4961"/><line style="stroke:#181818;stroke-width:0.5;" x1="52.08" x2="424.08" y1="473.4961" y2="473.4961"/></g><!--MD5=[2d42af8ec271a0ac230335f19dd7311c]
class Simulator_service--><g id="elem_Simulator_service"><rect codeLine="61" fill="#F1F1F1" height="72.5625" id="Simulator_service" rx="2.5" ry="2.5" style="stroke:#181818;stroke-width:0.5;" width="404" x="62.08" y="254.9336"/><ellipse cx="85.08" cy="283.2148" fill="#ADD1B2" rx="19" ry="19" style="stroke:#181818;stroke-width:1.0;"/><path d="M94.5331,292.6836 Q93.0331,293.4805 91.455,293.8711 Q89.8769,294.2773 88.0956,294.2773 Q82.4863,294.2773 79.3925,290.3242 Q76.2988,286.3555 76.2988,279.168 Q76.2988,272.0117 79.4081,268.0273 Q82.5331,264.0273 88.0956,264.0273 Q89.8769,264.0273 91.455,264.4336 Q93.0331,264.8242 94.5331,265.6211 L94.5331,269.668 Q93.0956,268.4805 91.4238,267.8555 Q89.7675,267.2305 88.0956,267.2305 Q84.2519,267.2305 82.33,270.1992 Q80.4238,273.168 80.4238,279.168 Q80.4238,285.1367 82.33,288.1055 Q84.2519,291.0742 88.0956,291.0742 Q89.8144,291.0742 91.455,290.4492 Q93.1113,289.8242 94.5331,288.6367 L94.5331,292.6836 Z " fill="#000000"/><text fill="#000000" font-family="sans-serif" font-size="40" lengthAdjust="spacing" textLength="356" x="107.08" y="297.0625">Simulator_service</text><line style="stroke:#181818;stroke-width:0.5;" x1="63.08" x2="465.08" y1="311.4961" y2="311.4961"/><line style="stroke:#181818;stroke-width:0.5;" x1="63.08" x2="465.08" y1="319.4961" y2="319.4961"/></g><!--MD5=[050cedbae5e3696284f88723d09e3f08]
class CryptoUtil--><g id="elem_CryptoUtil"><rect codeLine="66" fill="#F1F1F1" height="72.5625" id="CryptoUtil" rx="2.5" ry="2.5" style="stroke:#181818;stroke-width:0.5;" width="248" x="2943.08" y="76.9336"/><ellipse cx="2966.08" cy="105.2148" fill="#ADD1B2" rx="19" ry="19" style="stroke:#181818;stroke-width:1.0;"/><path d="M2975.5331,114.6836 Q2974.0331,115.4805 2972.455,115.8711 Q2970.8769,116.2773 2969.0956,116.2773 Q2963.4863,116.2773 2960.3925,112.3242 Q2957.2988,108.3555 2957.2988,101.168 Q2957.2988,94.0117 2960.4081,90.0273 Q2963.5331,86.0273 2969.0956,86.0273 Q2970.8769,86.0273 2972.455,86.4336 Q2974.0331,86.8242 2975.5331,87.6211 L2975.5331,91.668 Q2974.0956,90.4805 2972.4238,89.8555 Q2970.7675,89.2305 2969.0956,89.2305 Q2965.2519,89.2305 2963.33,92.1992 Q2961.4238,95.168 2961.4238,101.168 Q2961.4238,107.1367 2963.33,110.1055 Q2965.2519,113.0742 2969.0956,113.0742 Q2970.8144,113.0742 2972.455,112.4492 Q2974.1113,111.8242 2975.5331,110.6367 L2975.5331,114.6836 Z " fill="#000000"/><text fill="#000000" font-family="sans-serif" font-size="40" lengthAdjust="spacing" textLength="200" x="2988.08" y="119.0625">CryptoUtil</text><line style="stroke:#181818;stroke-width:0.5;" x1="2944.08" x2="3190.08" y1="133.4961" y2="133.4961"/><line style="stroke:#181818;stroke-width:0.5;" x1="2944.08" x2="3190.08" y1="141.4961" y2="141.4961"/></g><!--MD5=[839dd9113f011ff64e71f446c2fc22ba]
class NodeKeyGenerator--><g id="elem_NodeKeyGenerator"><rect codeLine="69" fill="#F1F1F1" height="72.5625" id="NodeKeyGenerator" rx="2.5" ry="2.5" style="stroke:#181818;stroke-width:0.5;" width="430" x="2478.08" y="76.9336"/><ellipse cx="2501.08" cy="105.2148" fill="#ADD1B2" rx="19" ry="19" style="stroke:#181818;stroke-width:1.0;"/><path d="M2510.5331,114.6836 Q2509.0331,115.4805 2507.455,115.8711 Q2505.8769,116.2773 2504.0956,116.2773 Q2498.4863,116.2773 2495.3925,112.3242 Q2492.2988,108.3555 2492.2988,101.168 Q2492.2988,94.0117 2495.4081,90.0273 Q2498.5331,86.0273 2504.0956,86.0273 Q2505.8769,86.0273 2507.455,86.4336 Q2509.0331,86.8242 2510.5331,87.6211 L2510.5331,91.668 Q2509.0956,90.4805 2507.4238,89.8555 Q2505.7675,89.2305 2504.0956,89.2305 Q2500.2519,89.2305 2498.33,92.1992 Q2496.4238,95.168 2496.4238,101.168 Q2496.4238,107.1367 2498.33,110.1055 Q2500.2519,113.0742 2504.0956,113.0742 Q2505.8144,113.0742 2507.455,112.4492 Q2509.1113,111.8242 2510.5331,110.6367 L2510.5331,114.6836 Z " fill="#000000"/><text fill="#000000" font-family="sans-serif" font-size="40" lengthAdjust="spacing" textLength="382" x="2523.08" y="119.0625">NodeKeyGenerator</text><line style="stroke:#181818;stroke-width:0.5;" x1="2479.08" x2="2907.08" y1="133.4961" y2="133.4961"/><line style="stroke:#181818;stroke-width:0.5;" x1="2479.08" x2="2907.08" y1="141.4961" y2="141.4961"/></g><!--MD5=[68a0c021ad4fbab63794e91c3c368f48]
class Block--><g id="elem_Block"><rect codeLine="74" fill="#F1F1F1" height="72.5625" id="Block" rx="2.5" ry="2.5" style="stroke:#181818;stroke-width:0.5;" width="155" x="2143.58" y="695.9336"/><ellipse cx="2166.58" cy="724.2148" fill="#ADD1B2" rx="19" ry="19" style="stroke:#181818;stroke-width:1.0;"/><path d="M2176.0331,733.6836 Q2174.5331,734.4805 2172.955,734.8711 Q2171.3769,735.2773 2169.5956,735.2773 Q2163.9863,735.2773 2160.8925,731.3242 Q2157.7988,727.3555 2157.7988,720.168 Q2157.7988,713.0117 2160.9081,709.0273 Q2164.0331,705.0273 2169.5956,705.0273 Q2171.3769,705.0273 2172.955,705.4336 Q2174.5331,705.8242 2176.0331,706.6211 L2176.0331,710.668 Q2174.5956,709.4805 2172.9238,708.8555 Q2171.2675,708.2305 2169.5956,708.2305 Q2165.7519,708.2305 2163.83,711.1992 Q2161.9238,714.168 2161.9238,720.168 Q2161.9238,726.1367 2163.83,729.1055 Q2165.7519,732.0742 2169.5956,732.0742 Q2171.3144,732.0742 2172.955,731.4492 Q2174.6113,730.8242 2176.0331,729.6367 L2176.0331,733.6836 Z " fill="#000000"/><text fill="#000000" font-family="sans-serif" font-size="40" lengthAdjust="spacing" textLength="107" x="2188.58" y="738.0625">Block</text><line style="stroke:#181818;stroke-width:0.5;" x1="2144.58" x2="2297.58" y1="752.4961" y2="752.4961"/><line style="stroke:#181818;stroke-width:0.5;" x1="2144.58" x2="2297.58" y1="760.4961" y2="760.4961"/></g><!--MD5=[a190b5b17d5900f01628020fd9000353]
class BlockPool--><g id="elem_BlockPool"><rect codeLine="77" fill="#F1F1F1" height="72.5625" id="BlockPool" rx="2.5" ry="2.5" style="stroke:#181818;stroke-width:0.5;" width="238" x="2388.08" y="541.9336"/><ellipse cx="2411.08" cy="570.2148" fill="#ADD1B2" rx="19" ry="19" style="stroke:#181818;stroke-width:1.0;"/><path d="M2420.5331,579.6836 Q2419.0331,580.4805 2417.455,580.8711 Q2415.8769,581.2773 2414.0956,581.2773 Q2408.4863,581.2773 2405.3925,577.3242 Q2402.2988,573.3555 2402.2988,566.168 Q2402.2988,559.0117 2405.4081,555.0273 Q2408.5331,551.0273 2414.0956,551.0273 Q2415.8769,551.0273 2417.455,551.4336 Q2419.0331,551.8242 2420.5331,552.6211 L2420.5331,556.668 Q2419.0956,555.4805 2417.4238,554.8555 Q2415.7675,554.2305 2414.0956,554.2305 Q2410.2519,554.2305 2408.33,557.1992 Q2406.4238,560.168 2406.4238,566.168 Q2406.4238,572.1367 2408.33,575.1055 Q2410.2519,578.0742 2414.0956,578.0742 Q2415.8144,578.0742 2417.455,577.4492 Q2419.1113,576.8242 2420.5331,575.6367 L2420.5331,579.6836 Z " fill="#000000"/><text fill="#000000" font-family="sans-serif" font-size="40" lengthAdjust="spacing" textLength="190" x="2433.08" y="584.0625">BlockPool</text><line style="stroke:#181818;stroke-width:0.5;" x1="2389.08" x2="2625.08" y1="598.4961" y2="598.4961"/><line style="stroke:#181818;stroke-width:0.5;" x1="2389.08" x2="2625.08" y1="606.4961" y2="606.4961"/></g><!--MD5=[04d4f9b1edda2793a31ab6271d9214d1]
class Blockchain--><g id="elem_Blockchain"><rect codeLine="80" fill="#F1F1F1" height="72.5625" id="Blockchain" rx="2.5" ry="2.5" style="stroke:#181818;stroke-width:0.5;" width="263" x="2089.58" y="541.9336"/><ellipse cx="2112.58" cy="570.2148" fill="#ADD1B2" rx="19" ry="19" style="stroke:#181818;stroke-width:1.0;"/><path d="M2122.0331,579.6836 Q2120.5331,580.4805 2118.955,580.8711 Q2117.3769,581.2773 2115.5956,581.2773 Q2109.9863,581.2773 2106.8925,577.3242 Q2103.7988,573.3555 2103.7988,566.168 Q2103.7988,559.0117 2106.9081,555.0273 Q2110.0331,551.0273 2115.5956,551.0273 Q2117.3769,551.0273 2118.955,551.4336 Q2120.5331,551.8242 2122.0331,552.6211 L2122.0331,556.668 Q2120.5956,555.4805 2118.9238,554.8555 Q2117.2675,554.2305 2115.5956,554.2305 Q2111.7519,554.2305 2109.83,557.1992 Q2107.9238,560.168 2107.9238,566.168 Q2107.9238,572.1367 2109.83,575.1055 Q2111.7519,578.0742 2115.5956,578.0742 Q2117.3144,578.0742 2118.955,577.4492 Q2120.6113,576.8242 2122.0331,575.6367 L2122.0331,579.6836 Z " fill="#000000"/><text fill="#000000" font-family="sans-serif" font-size="40" lengthAdjust="spacing" textLength="215" x="2134.58" y="584.0625">Blockchain</text><line style="stroke:#181818;stroke-width:0.5;" x1="2090.58" x2="2351.58" y1="598.4961" y2="598.4961"/><line style="stroke:#181818;stroke-width:0.5;" x1="2090.58" x2="2351.58" y1="606.4961" y2="606.4961"/></g><!--MD5=[05ebf61412361dd348227f74f7358350]
class TransactionPool--><g id="elem_TransactionPool"><rect codeLine="83" fill="#F1F1F1" height="72.5625" id="TransactionPool" rx="2.5" ry="2.5" style="stroke:#181818;stroke-width:0.5;" width="365" x="2162.58" y="408.9336"/><ellipse cx="2185.58" cy="437.2148" fill="#ADD1B2" rx="19" ry="19" style="stroke:#181818;stroke-width:1.0;"/><path d="M2195.0331,446.6836 Q2193.5331,447.4805 2191.955,447.8711 Q2190.3769,448.2773 2188.5956,448.2773 Q2182.9863,448.2773 2179.8925,444.3242 Q2176.7988,440.3555 2176.7988,433.168 Q2176.7988,426.0117 2179.9081,422.0273 Q2183.0331,418.0273 2188.5956,418.0273 Q2190.3769,418.0273 2191.955,418.4336 Q2193.5331,418.8242 2195.0331,419.6211 L2195.0331,423.668 Q2193.5956,422.4805 2191.9238,421.8555 Q2190.2675,421.2305 2188.5956,421.2305 Q2184.7519,421.2305 2182.83,424.1992 Q2180.9238,427.168 2180.9238,433.168 Q2180.9238,439.1367 2182.83,442.1055 Q2184.7519,445.0742 2188.5956,445.0742 Q2190.3144,445.0742 2191.955,444.4492 Q2193.6113,443.8242 2195.0331,442.6367 L2195.0331,446.6836 Z " fill="#000000"/><text fill="#000000" font-family="sans-serif" font-size="40" lengthAdjust="spacing" textLength="317" x="2207.58" y="451.0625">TransactionPool</text><line style="stroke:#181818;stroke-width:0.5;" x1="2163.58" x2="2526.58" y1="465.4961" y2="465.4961"/><line style="stroke:#181818;stroke-width:0.5;" x1="2163.58" x2="2526.58" y1="473.4961" y2="473.4961"/></g><!--MD5=[68bac6ee2c0e8db0f83aa54859cfa0cb]
link Simulator_controller to NonValidator--><g id="link_Simulator_controller_NonValidator"><path codeLine="87" d="M475.31,130.1636 C681.91,143.9836 996.44,163.4536 1270.08,173.9336 C1282.24,174.4036 1699.55,173.2536 1708.08,181.9336 C1808.97,284.6836 1784.1,383.6336 1708.08,505.9336 C1646.07,605.7036 1573.56,565.5236 1471.08,622.9336 C1432.17,644.7336 1389.78,671.4436 1356.81,692.9036 " fill="none" id="Simulator_controller-to-NonValidator" style="stroke:#48D1CC;stroke-width:5.0;"/><polygon fill="#48D1CC" points="1352.43,695.7536,1362.1501,694.1664,1356.6121,693.0131,1357.7654,687.4751,1352.43,695.7536" style="stroke:#48D1CC;stroke-width:5.0;"/></g><!--MD5=[a9fdfd3798678ff8d2b1ac602275ff65]
link Simulator_service to P2PServer--><g id="link_Simulator_service_P2PServer"><path codeLine="88" d="M333.93,254.8536 C395.15,225.4936 487.56,187.6436 573.58,177.9336 C608.39,174.0036 1799.61,175.9036 1834.58,177.9336 C2137.09,195.5136 2489.81,243.5536 2676.5,271.1736 " fill="none" id="Simulator_service-to-P2PServer" style="stroke:#48D1CC;stroke-width:5.0;"/><polygon fill="#48D1CC" points="2681.7,271.9436,2673.3795,266.6739,2676.7534,271.2145,2672.2129,274.5884,2681.7,271.9436" style="stroke:#48D1CC;stroke-width:5.0;"/></g><!--MD5=[4c5d84732ac77395d9418d6fb9b988ea]
link Simulator_controller to BlockPool--><g id="link_Simulator_controller_BlockPool"><path codeLine="89" d="M475.28,131.1336 C681.86,145.6036 996.37,165.5036 1270.08,173.9336 C1278.45,174.1936 3677.17,176.0036 3683.08,181.9336 C3784.95,284.1436 3766.91,406.7736 3662.08,505.9336 C3625.09,540.9236 2922.27,565.3336 2631.44,573.9836 " fill="none" id="Simulator_controller-to-BlockPool" style="stroke:#48D1CC;stroke-width:5.0;"/><polygon fill="#48D1CC" points="2626.34,574.1336,2635.4506,577.8749,2631.338,573.9908,2635.2221,569.8782,2626.34,574.1336" style="stroke:#48D1CC;stroke-width:5.0;"/></g><!--MD5=[7b08add7bc6014ed0ff58065db2706fa]
link Blockchain to NonValidator--><g id="link_Blockchain_NonValidator"><path codeLine="90" d="M2089.48,597.8336 C2036.9,604.4336 1975.73,611.1636 1920.08,614.9336 C1895.19,616.6236 1494.98,615.7936 1471.08,622.9336 C1424.3,636.9136 1377.87,667.4436 1345.06,692.5736 " fill="none" id="Blockchain-to-NonValidator" style="stroke:#48D1CC;stroke-width:5.0;"/><polygon fill="#48D1CC" points="1340.72,695.9236,1350.2876,693.5867,1344.6767,692.8668,1345.3967,687.2559,1340.72,695.9236" style="stroke:#48D1CC;stroke-width:5.0;"/></g><!--MD5=[d77153789e8097fc371e8b31fa1d44f6]
link BFTMessageHandler to BFTMessagePool--><g id="link_BFTMessageHandler_BFTMessagePool"><path codeLine="91" d="M1178.66,328.0736 C1202.33,351.1436 1233.19,381.2036 1257.6,404.9936 " fill="none" id="BFTMessageHandler-to-BFTMessagePool" style="stroke:#48D1CC;stroke-width:5.0;"/><polygon fill="#48D1CC" points="1261.46,408.7536,1257.7948,399.6121,1257.8748,405.2684,1252.2185,405.3484,1261.46,408.7536" style="stroke:#48D1CC;stroke-width:5.0;"/></g><!--MD5=[d687c72a694ee2fc5112e6563dbfb0ba]
link P2PServer to QueueResource--><g id="link_P2PServer_QueueResource"><path codeLine="92" d="M2898.81,328.0736 C2959.24,351.8036 3038.49,382.9336 3099.82,407.0236 " fill="none" id="P2PServer-to-QueueResource" style="stroke:#48D1CC;stroke-width:5.0;"/><polygon fill="#48D1CC" points="3104.58,408.8836,3097.6645,401.871,3099.9259,407.0562,3094.7407,409.3176,3104.58,408.8836" style="stroke:#48D1CC;stroke-width:5.0;"/></g><!--MD5=[be8fbdfa4a5f3788ea347a2362d685f9]
link TransactionPool to Blockchain--><g id="link_TransactionPool_Blockchain"><path codeLine="93" d="M2311.2,482.2336 C2294.93,499.4136 2275.39,520.0636 2258.67,537.7236 " fill="none" id="TransactionPool-to-Blockchain" style="stroke:#48D1CC;stroke-width:5.0;"/><polygon fill="#48D1CC" points="2254.92,541.6836,2264.0164,537.9079,2258.3615,538.0565,2258.213,532.4016,2254.92,541.6836" style="stroke:#48D1CC;stroke-width:5.0;"/></g><!--MD5=[b056b54640e8d43cd87144fcc6474095]
link Block to Transaction--><g id="link_Block_Transaction"><path codeLine="94" d="M2143.26,732.4336 C2108.27,732.4336 2073.28,732.4336 2038.29,732.4336 " fill="none" id="Block-to-Transaction" style="stroke:#48D1CC;stroke-width:5.0;"/><polygon fill="#48D1CC" points="2033.13,732.4336,2042.13,736.4336,2038.13,732.4336,2042.13,728.4336,2033.13,732.4336" style="stroke:#48D1CC;stroke-width:5.0;"/></g><!--MD5=[9efd460e18467a8ba9aa39c3ef2f59cf]
link BlockPool to Block--><g id="link_BlockPool_Block"><path codeLine="95" d="M2440.03,615.0736 C2395.81,638.5736 2337.95,669.3236 2292.81,693.3136 " fill="none" id="BlockPool-to-Block" style="stroke:#48D1CC;stroke-width:5.0;"/><polygon fill="#48D1CC" points="2288.21,695.7536,2298.0332,695.0428,2292.6206,693.3984,2294.2649,687.9858,2288.21,695.7536" style="stroke:#48D1CC;stroke-width:5.0;"/></g><!--MD5=[3ff85b38ca4fa34f5ba37bcb2915c48a]
link Simulator_controller to TransactionPool--><g id="link_Simulator_controller_TransactionPool"><path codeLine="96" d="M475.3,130.4536 C681.89,144.4736 996.42,164.0736 1270.08,173.9336 C1302.4,175.0936 1820.76,173.8836 1852.08,181.9336 C2026.17,226.6636 2206.64,344.2536 2292.96,405.7336 " fill="none" id="Simulator_controller-to-TransactionPool" style="stroke:#48D1CC;stroke-width:5.0;"/><polygon fill="#48D1CC" points="2297.25,408.7936,2292.2401,400.3142,2293.1775,405.8928,2287.5988,406.8302,2297.25,408.7936" style="stroke:#48D1CC;stroke-width:5.0;"/></g><!--MD5=[6071033f747abb5f1fc861b4f2600082]
link BFTMessageHandler to TransactionPool--><g id="link_BFTMessageHandler_TransactionPool"><path codeLine="97" d="M1370.14,326.4136 C1376.17,326.9636 1382.16,327.4736 1388.08,327.9336 C1429.51,331.1336 2095.76,325.8636 2136.08,335.9336 C2191.38,349.7436 2248.44,380.6936 2288.93,406.0136 " fill="none" id="BFTMessageHandler-to-TransactionPool" style="stroke:#48D1CC;stroke-width:5.0;"/><polygon fill="#48D1CC" points="2293.29,408.7636,2287.7854,400.5966,2289.0524,406.1098,2283.5393,407.3767,2293.29,408.7636" style="stroke:#48D1CC;stroke-width:5.0;"/></g><!--MD5=[c743def8757a43e02b08b7c4613200f8]
link BFTMessageHandler to Wallet--><g id="link_BFTMessageHandler_Wallet"><path codeLine="98" d="M1034.48,328.1136 C1032.16,330.5536 1030.02,333.1536 1028.08,335.9336 C952.31,444.4736 987.81,613.8036 1009.98,690.8336 " fill="none" id="BFTMessageHandler-to-Wallet" style="stroke:#48D1CC;stroke-width:5.0;"/><polygon fill="#48D1CC" points="1011.42,695.7736,1012.74,686.0136,1010.02,690.9736,1005.06,688.2536,1011.42,695.7736" style="stroke:#48D1CC;stroke-width:5.0;"/></g><!--MD5=[ad0ab69aa77b1e823819b49fc0167a2a]
link BFTMessageHandler to BlockPool--><g id="link_BFTMessageHandler_BlockPool"><path codeLine="99" d="M1370.14,326.3536 C1376.18,326.9236 1382.17,327.4536 1388.08,327.9336 C1438.37,331.9936 1793.38,322.7436 1842.08,335.9336 C1991.13,376.2936 1999.25,455.1736 2145.08,505.9336 C2240.72,539.2236 2270.95,521.2136 2370.08,541.9336 C2374.32,542.8236 2378.62,543.7536 2382.95,544.7136 " fill="none" id="BFTMessageHandler-to-BlockPool" style="stroke:#48D1CC;stroke-width:5.0;"/><polygon fill="#48D1CC" points="2388.06,545.8736,2380.1621,539.9895,2383.1828,544.7723,2378.4,547.793,2388.06,545.8736" style="stroke:#48D1CC;stroke-width:5.0;"/></g><!--MD5=[d331f66c420f1372c55862b010e46600]
link Simulator_controller to QueueResource--><g id="link_Simulator_controller_QueueResource"><path codeLine="100" d="M475.28,131.1236 C681.86,145.5836 996.37,165.4836 1270.08,173.9336 C1278.12,174.1836 3580.4,176.2336 3586.08,181.9336 C3631.88,227.8936 3624.86,275.9136 3586.08,327.9336 C3560.22,362.6236 3469.96,390.7436 3382.68,410.6536 " fill="none" id="Simulator_controller-to-QueueResource" style="stroke:#48D1CC;stroke-width:5.0;"/><polygon fill="#48D1CC" points="3377.74,411.7736,3387.3988,413.6991,3382.6179,410.6754,3385.6416,405.8944,3377.74,411.7736" style="stroke:#48D1CC;stroke-width:5.0;"/></g><!--MD5=[199596c59386b1c7a007c649c0ffd149]
link Simulator_controller to Simulator_result--><g id="link_Simulator_controller_Simulator_result"><path codeLine="101" d="M78.81,149.9436 C65.41,158.4736 53.47,168.9836 44.08,181.9336 C6,234.4736 12.12,271.4636 44.08,327.9336 C63.8,362.7836 98.57,388.3536 133.28,406.5036 " fill="none" id="Simulator_controller-to-Simulator_result" style="stroke:#48D1CC;stroke-width:5.0;"/><polygon fill="#48D1CC" points="137.95,408.9036,131.7769,401.2294,133.5039,406.6162,128.1171,408.3432,137.95,408.9036" style="stroke:#48D1CC;stroke-width:5.0;"/></g><!--MD5=[bcd5b33850f3d6d100e2529d25cbb895]
link Simulator_controller to BFTMessagePool--><g id="link_Simulator_controller_BFTMessagePool"><path codeLine="102" d="M431.25,150.0436 C449.95,158.5036 467.7,168.9736 483.08,181.9336 C538.26,228.4236 496.07,285.0336 554.08,327.9336 C638.74,390.5436 911.4,420.4836 1101.97,434.0836 " fill="none" id="Simulator_controller-to-BFTMessagePool" style="stroke:#48D1CC;stroke-width:5.0;"/><polygon fill="#48D1CC" points="1107.02,434.4436,1098.3156,429.8356,1102.0318,434.1006,1097.7668,437.8167,1107.02,434.4436" style="stroke:#48D1CC;stroke-width:5.0;"/></g><!--MD5=[06ace2971e0dce2d8ce028d3e0fb94c9]
link Simulator_service to Wallet--><g id="link_Simulator_service_Wallet"><path codeLine="103" d="M429.5,327.9936 C433.83,330.4636 438.04,333.1136 442.08,335.9336 C516.65,388.0436 487.39,446.2936 556.08,505.9336 C668.18,603.2536 829.6,668.7536 930.31,703.0536 " fill="none" id="Simulator_service-to-Wallet" style="stroke:#48D1CC;stroke-width:5.0;"/><polygon fill="#48D1CC" points="935.06,704.6636,927.8169,697.99,930.3238,703.061,925.2527,705.5679,935.06,704.6636" style="stroke:#48D1CC;stroke-width:5.0;"/></g><!--MD5=[429c2ffd36cde94f2b334063e7366d36]
link Simulator_service to Simulator_result--><g id="link_Simulator_service_Simulator_result"><path codeLine="104" d="M257.98,328.0736 C254.1,350.7636 249.06,380.2136 245.03,403.8136 " fill="none" id="Simulator_service-to-Simulator_result" style="stroke:#48D1CC;stroke-width:5.0;"/><polygon fill="#48D1CC" points="244.18,408.7536,249.6399,400.5567,245.0228,403.8251,241.7543,399.2081,244.18,408.7536" style="stroke:#48D1CC;stroke-width:5.0;"/></g><!--MD5=[72dcfc5098e8f03943a9da483ac61647]
link Simulator_controller to Validator--><g id="link_Simulator_controller_Validator"><path codeLine="105" d="M475.31,130.3036 C681.9,144.2136 996.43,163.7536 1270.08,173.9336 C1283.88,174.4436 1757.4,172.0936 1767.08,181.9336 C1868.08,284.5736 1811.81,369.0536 1767.08,505.9336 C1742.8,580.2336 1683.71,650.3436 1643.26,692.0936 " fill="none" id="Simulator_controller-to-Validator" style="stroke:#48D1CC;stroke-width:5.0;"/><polygon fill="#48D1CC" points="1639.65,695.8036,1648.799,692.1571,1643.1425,692.2256,1643.0741,686.5691,1639.65,695.8036" style="stroke:#48D1CC;stroke-width:5.0;"/></g><!--MD5=[e00b5140ced1f664f8eedb78bcf2e288]
link Simulator_controller to Synchronizer--><g id="link_Simulator_controller_Synchronizer"><path codeLine="106" d="M445.59,149.9436 C479.34,158.6736 513.66,169.2436 545.08,181.9336 C590.11,200.1136 636.97,228.7136 671.59,251.9936 " fill="none" id="Simulator_controller-to-Synchronizer" style="stroke:#48D1CC;stroke-width:5.0;"/><polygon fill="#48D1CC" points="675.75,254.8036,670.5332,246.4499,671.6074,252.0038,666.0535,253.078,675.75,254.8036" style="stroke:#48D1CC;stroke-width:5.0;"/></g><!--MD5=[55bafaefd9856c5d29408904b505daa9]
link BFTMessageHandler to NonValidator--><g id="link_BFTMessageHandler_NonValidator"><path codeLine="107" d="M1094.72,327.9636 C1092.94,330.5036 1091.38,333.1636 1090.08,335.9336 C1058.1,404.3836 1062.5,435.5936 1090.08,505.9336 C1120.98,584.7236 1193.76,652.4136 1244.71,692.5236 " fill="none" id="BFTMessageHandler-to-NonValidator" style="stroke:#48D1CC;stroke-width:5.0;"/><polygon fill="#48D1CC" points="1248.95,695.8436,1244.3277,687.1468,1245.0125,692.7621,1239.3972,693.4468,1248.95,695.8436" style="stroke:#48D1CC;stroke-width:5.0;"/></g><!--MD5=[9ae29a63597bc5ab1045b35c68a1fea2]
link P2PServer to NonValidator--><g id="link_P2PServer_NonValidator"><path codeLine="108" d="M2681.76,292.8836 C2473.56,294.5936 2075.79,302.2736 2021.08,335.9336 C1897.01,412.2636 1977.07,545.3836 1849.08,614.9336 C1830.62,624.9636 1491.2,616.8836 1471.08,622.9336 C1424.48,636.9336 1378.21,667.3036 1345.42,692.3636 " fill="none" id="P2PServer-to-NonValidator" style="stroke:#48D1CC;stroke-width:5.0;"/><polygon fill="#48D1CC" points="1341.08,695.7036,1350.6517,693.3834,1345.0421,692.6537,1345.7718,687.0441,1341.08,695.7036" style="stroke:#48D1CC;stroke-width:5.0;"/></g><!--MD5=[2dac1093f1dd6677bf03cdeb3028c5aa]
link P2PServer to BFTMessagePool--><g id="link_P2PServer_BFTMessagePool"><path codeLine="109" d="M2681.83,292.6736 C2501.43,294.2836 2159.79,302.0736 1871.08,335.9336 C1730.63,352.4036 1572.87,383.2036 1458.49,407.7936 " fill="none" id="P2PServer-to-BFTMessagePool" style="stroke:#48D1CC;stroke-width:5.0;"/><polygon fill="#48D1CC" points="1453.42,408.8836,1463.0612,410.8956,1458.3075,407.8291,1461.374,403.0755,1453.42,408.8836" style="stroke:#48D1CC;stroke-width:5.0;"/></g><!--MD5=[3b5500d20ca44acaca41e7a41b7325b4]
link P2PServer to Validator--><g id="link_P2PServer_Validator"><path codeLine="110" d="M2681.71,292.1136 C2484.06,292.7736 2119.44,299.0536 2073.08,335.9336 C1971.94,416.3936 2093.34,535.8936 1991.08,614.9336 C1968.48,632.4036 1760.82,612.8836 1734.08,622.9336 C1695.97,637.2636 1660.78,667.4136 1636.34,692.3036 " fill="none" id="P2PServer-to-Validator" style="stroke:#48D1CC;stroke-width:5.0;"/><polygon fill="#48D1CC" points="1632.81,695.9336,1641.9515,692.2684,1636.2952,692.3484,1636.2152,686.6921,1632.81,695.9336" style="stroke:#48D1CC;stroke-width:5.0;"/></g><!--MD5=[88325f38d7b93c5eb754bcfc6b77818c]
link Blockchain to Validator--><g id="link_Blockchain_Validator"><path codeLine="111" d="M2089.55,610.8736 C2080.29,612.4536 2071.06,613.8336 2062.08,614.9336 C2025.9,619.3736 1768.25,610.2236 1734.08,622.9336 C1695.92,637.1336 1660.74,667.2936 1636.31,692.2236 " fill="none" id="Blockchain-to-Validator" style="stroke:#48D1CC;stroke-width:5.0;"/><polygon fill="#48D1CC" points="1632.78,695.8536,1641.9142,692.1703,1636.2581,692.2615,1636.1668,686.6054,1632.78,695.8536" style="stroke:#48D1CC;stroke-width:5.0;"/></g><!--MD5=[931577fb8f6badea6baff2b0334ed133]
link Simulator_controller to Blockchain--><g id="link_Simulator_controller_Blockchain"><path codeLine="112" d="M475.28,131.1236 C681.86,145.5936 996.37,165.4936 1270.08,173.9336 C1278.26,174.1836 3621.3,176.1336 3627.08,181.9336 C3729.58,284.7836 3697.59,414.1336 3585.08,505.9336 C3532.8,548.5936 2437.98,533.1136 2371.08,541.9336 C2366.79,542.5036 2362.44,543.1336 2358.06,543.8336 " fill="none" id="Simulator_controller-to-Blockchain" style="stroke:#48D1CC;stroke-width:5.0;"/><polygon fill="#48D1CC" points="2352.91,544.6736,2362.4405,547.1575,2357.8435,543.8608,2361.1401,539.2639,2352.91,544.6736" style="stroke:#48D1CC;stroke-width:5.0;"/></g><!--MD5=[0aaac363753ff9d073cf1a826eb26197]
link P2PServer to TransactionPool--><g id="link_P2PServer_TransactionPool"><path codeLine="113" d="M2681.63,321.7536 C2664.88,326.2036 2648.01,330.9736 2632.08,335.9336 C2565.42,356.6936 2491.79,384.6336 2435.8,406.9636 " fill="none" id="P2PServer-to-TransactionPool" style="stroke:#48D1CC;stroke-width:5.0;"/><polygon fill="#48D1CC" points="2431.12,408.8336,2440.9619,409.205,2435.7624,406.9766,2437.9907,401.7772,2431.12,408.8336" style="stroke:#48D1CC;stroke-width:5.0;"/></g><!--MD5=[a296940997f0fcc15a4e762fa8176869]
link Simulator_controller to P2PServer--><g id="link_Simulator_controller_P2PServer"><path codeLine="114" d="M475.29,130.7536 C681.88,144.9736 996.4,164.7036 1270.08,173.9336 C1367.47,177.2136 2049.99,173.5736 2147.08,181.9336 C2332.25,197.8836 2543.84,236.2036 2676.69,262.7536 " fill="none" id="Simulator_controller-to-P2PServer" style="stroke:#48D1CC;stroke-width:5.0;"/><polygon fill="#48D1CC" points="2681.78,263.7636,2673.7456,258.0672,2676.8782,262.7775,2672.1679,265.9101,2681.78,263.7636" style="stroke:#48D1CC;stroke-width:5.0;"/></g><!--MD5=[60ba72ffc4bc14716d83dc14e2bf56f1]
link P2PServer to Wallet--><g id="link_P2PServer_Wallet"><path codeLine="115" d="M2681.9,293.6936 C2453.73,296.7136 1989.8,306.4136 1922.08,335.9336 C1759.29,406.8836 1800.02,546.7036 1636.08,614.9336 C1583.96,636.6236 1179.88,600.4936 1128.08,622.9336 C1095.34,637.1136 1067.73,666.8936 1049.05,691.6736 " fill="none" id="P2PServer-to-Wallet" style="stroke:#48D1CC;stroke-width:5.0;"/><polygon fill="#48D1CC" points="1045.9,695.9136,1054.4696,691.0596,1048.8748,691.8948,1048.0395,686.2999,1045.9,695.9136" style="stroke:#48D1CC;stroke-width:5.0;"/></g><!--MD5=[79d52477a448923d8a24e4447cd3b77a]
link P2PServer to BlockPool--><g id="link_P2PServer_BlockPool"><path codeLine="116" d="M2795.72,328.2736 C2777.89,375.0736 2740.76,456.7936 2684.08,505.9336 C2668.5,519.4436 2650.03,530.6136 2631.01,539.7736 " fill="none" id="P2PServer-to-BlockPool" style="stroke:#48D1CC;stroke-width:5.0;"/><polygon fill="#48D1CC" points="2626.16,542.0636,2636.0067,541.8552,2630.6851,539.9367,2632.6036,534.6151,2626.16,542.0636" style="stroke:#48D1CC;stroke-width:5.0;"/></g><!--MD5=[4a297f1c7ed50c52562c5f8e39829e5f]
link Simulator_controller to Wallet--><g id="link_Simulator_controller_Wallet"><path codeLine="117" d="M475.32,129.9736 C681.93,143.6636 996.46,163.0536 1270.08,173.9336 C1280.55,174.3536 1639.75,174.4536 1647.08,181.9336 C1747.82,284.8336 1737.01,393.4736 1647.08,505.9336 C1499.41,690.6036 1334.24,507.1436 1128.08,622.9336 C1097.83,639.9236 1070.8,668.3436 1051.74,691.8336 " fill="none" id="Simulator_controller-to-Wallet" style="stroke:#48D1CC;stroke-width:5.0;"/><polygon fill="#48D1CC" points="1048.51,695.8636,1057.2618,691.3463,1051.6387,691.9634,1051.0215,686.3403,1048.51,695.8636" style="stroke:#48D1CC;stroke-width:5.0;"/></g><!--MD5=[1e6eddd52c6cf1b738a44f557776aa12]
link BFTMessageHandler to Blockchain--><g id="link_BFTMessageHandler_Blockchain"><path codeLine="118" d="M1370.16,326.1436 C1376.19,326.7836 1382.17,327.3736 1388.08,327.9336 C1467.81,335.4436 1489.59,320.0736 1568.08,335.9336 C1783.9,379.5336 2023.2,483.3536 2143.3,539.6236 " fill="none" id="BFTMessageHandler-to-Blockchain" style="stroke:#48D1CC;stroke-width:5.0;"/><polygon fill="#48D1CC" points="2147.87,541.7736,2141.4264,534.3251,2143.3449,539.6467,2138.0233,541.5652,2147.87,541.7736" style="stroke:#48D1CC;stroke-width:5.0;"/></g><!--MD5=[5a9bb036856ac6b1e8f95d336bedffaf]
link BFTMessageHandler to Validator--><g id="link_BFTMessageHandler_Validator"><path codeLine="119" d="M1370.18,325.9636 C1376.2,326.6536 1382.18,327.3136 1388.08,327.9336 C1401.26,329.3236 1496.95,327.3836 1507.08,335.9336 C1534.48,359.0636 1578.2,594.4636 1595.1,690.7336 " fill="none" id="BFTMessageHandler-to-Validator" style="stroke:#48D1CC;stroke-width:5.0;"/><polygon fill="#48D1CC" points="1595.98,695.7636,1598.3741,686.2101,1595.1209,690.838,1590.4931,687.5847,1595.98,695.7636" style="stroke:#48D1CC;stroke-width:5.0;"/></g><!--MD5=[007288eb18ff433c8bf7da257c9f74d7]
link Blockchain to Block--><g id="link_Blockchain_Block"><path codeLine="120" d="M2221.08,615.0736 C2221.08,637.6636 2221.08,666.9736 2221.08,690.5136 " fill="none" id="Blockchain-to-Block" style="stroke:#48D1CC;stroke-width:5.0;"/><polygon fill="#48D1CC" points="2221.08,695.7536,2225.08,686.7536,2221.08,690.7536,2217.08,686.7536,2221.08,695.7536" style="stroke:#48D1CC;stroke-width:5.0;"/></g><!--MD5=[c67c2435f0e34c81df2bf433ff5af189]
link Simulator_controller to Simulator_service--><g id="link_Simulator_controller_Simulator_service"><path codeLine="121" d="M252.91,150.0536 C255.21,178.9136 258.45,219.6036 260.84,249.7536 " fill="none" id="Simulator_controller-to-Simulator_service" style="stroke:#48D1CC;stroke-width:5.0;"/><polygon fill="#48D1CC" points="261.25,254.8736,264.5174,245.5825,260.8501,249.8896,256.5431,246.2223,261.25,254.8736" style="stroke:#48D1CC;stroke-width:5.0;"/></g><!--MD5=[ff7c132bfbf7714b9ab31c8f4b2d4d07]
link P2PServer to Blockchain--><g id="link_P2PServer_Blockchain"><path codeLine="122" d="M2692.4,328.1036 C2688.14,330.5536 2684.01,333.1636 2680.08,335.9336 C2601.2,391.4936 2627.24,455.3536 2545.08,505.9336 C2477.83,547.3336 2448.18,524.8336 2371.08,541.9336 C2366.67,542.9136 2362.18,543.9136 2357.66,544.9336 " fill="none" id="P2PServer-to-Blockchain" style="stroke:#48D1CC;stroke-width:5.0;"/><polygon fill="#48D1CC" points="2352.73,546.0536,2362.39,547.973,2357.6072,544.9523,2360.6279,540.1695,2352.73,546.0536" style="stroke:#48D1CC;stroke-width:5.0;"/></g><!--MD5=[fc5679768fdc6ee1546fa7432e31ef1e]
@startuml
skinparam backgroundColor mediumslateblue
skinparam defaultFontColor black
skinparam defaultFontSize 40
skinparam ArrowColor mediumturquoise
skinparam ArrowThickness 5
skinparam defaultFontStyle Broadway
package org.renaultleat.consensus {
  class Message {
   
  }
  class BFTMessageHandler {
   
  }
  class BFTMessagePool {
   
  }
  class Synchronizer {
  
  }
}
package org.renaultleat.network {
  class NetworkTopologyGenerator {
   
  }
  class P2PServer {
    
  }
  class QueueResource {
   
  }
}
package org.renaultleat.properties {
  class NodeDevProperty {
   
  }
  class NodeProperty {
   
  }
}
package org.renaultleat.node {
  class NonValidator {
    
  }
  class Transaction {
 
  }
  class Validator {
   
  }
  class Wallet {
  
  }
}
package org.renaultleat.api {
  class Simulator_controller {
   
  }
  class Simulator_result {
    
  }
  class Simulator_service {
   
  }
}
package org.renaultleat.crypto {
  class CryptoUtil {
   
  }
  class NodeKeyGenerator {
   
  }
}
package org.renaultleat.chain {
  class Block {
  
  }
  class BlockPool {
   
  }
  class Blockchain {
   
  }
  class TransactionPool {
   
  }
}
Simulator_controller - -> NonValidator
Simulator_service - -> P2PServer
Simulator_controller - -> BlockPool
Blockchain - -> NonValidator
BFTMessageHandler - -> BFTMessagePool
P2PServer - ->  QueueResource
TransactionPool - -> Blockchain
Block - -> Transaction
BlockPool - -> Block
Simulator_controller - -> TransactionPool
BFTMessageHandler - -> TransactionPool
BFTMessageHandler - -> Wallet
BFTMessageHandler - -> BlockPool
Simulator_controller - -> QueueResource
Simulator_controller - -> Simulator_result
Simulator_controller - -> BFTMessagePool
Simulator_service - -> Wallet
Simulator_service - -> Simulator_result
Simulator_controller - -> Validator
Simulator_controller - -> Synchronizer
BFTMessageHandler - -> NonValidator
P2PServer - -> NonValidator
P2PServer - -> BFTMessagePool
P2PServer - -> Validator
Blockchain - -> Validator
Simulator_controller - -> Blockchain
P2PServer - -> TransactionPool
Simulator_controller - -> P2PServer
P2PServer - -> Wallet
P2PServer - -> BlockPool
Simulator_controller - -> Wallet
BFTMessageHandler - -> Blockchain
BFTMessageHandler - -> Validator
Blockchain - -> Block
Simulator_controller - ->  Simulator_service
P2PServer - -> Blockchain
@enduml

PlantUML version 1.2022.7(Mon Aug 22 19:01:30 CEST 2022)
(GPL source distribution)
Java Runtime: OpenJDK Runtime Environment
JVM: OpenJDK 64-Bit Server VM
Default Encoding: UTF-8
Language: en
Country: US
--></g></svg>