<?xml version="1.0" encoding="UTF-8" standalone="no"?><svg xmlns="http://www.w3.org/2000/svg" xmlns:xlink="http://www.w3.org/1999/xlink" contentStyleType="text/css" height="340px" preserveAspectRatio="none" style="width:900px;height:340px;background:#FFFFFF;" version="1.1" viewBox="0 0 900 340" width="900px" zoomAndPan="magnify"><defs/><g><!--MD5=[736b4f1b1392848c361634a8cbde24e7]
cluster org.renaultleat.crypto--><g id="cluster_org.renaultleat.crypto"><path d="M8.5,6 L182.5,6 A3.75,3.75 0 0 1 185,8.5 L192,28.2969 L890.5,28.2969 A2.5,2.5 0 0 1 893,30.7969 L893,330.5 A2.5,2.5 0 0 1 890.5,333 L8.5,333 A2.5,2.5 0 0 1 6,330.5 L6,8.5 A2.5,2.5 0 0 1 8.5,6 " fill="none" style="stroke:#000000;stroke-width:1.5;"/><line style="stroke:#000000;stroke-width:1.5;" x1="6" x2="192" y1="28.2969" y2="28.2969"/><text fill="#000000" font-family="sans-serif" font-size="14" font-weight="bold" lengthAdjust="spacing" textLength="173" x="10" y="20.9951">org.renaultleat.crypto</text></g><!--MD5=[050cedbae5e3696284f88723d09e3f08]
class CryptoUtil--><g id="elem_CryptoUtil"><rect codeLine="2" fill="#F1F1F1" height="276.1563" id="CryptoUtil" rx="2.5" ry="2.5" style="stroke:#181818;stroke-width:0.5;" width="550" x="327" y="41"/><ellipse cx="564.75" cy="57" fill="#ADD1B2" rx="11" ry="11" style="stroke:#181818;stroke-width:1.0;"/><path d="M567.7188,62.6406 Q567.1406,62.9375 566.5,63.0781 Q565.8594,63.2344 565.1563,63.2344 Q562.6563,63.2344 561.3281,61.5938 Q560.0156,59.9375 560.0156,56.8125 Q560.0156,53.6875 561.3281,52.0313 Q562.6563,50.375 565.1563,50.375 Q565.8594,50.375 566.5,50.5313 Q567.1563,50.6875 567.7188,50.9844 L567.7188,53.7031 Q567.0938,53.125 566.5,52.8594 Q565.9063,52.5781 565.2813,52.5781 Q563.9375,52.5781 563.25,53.6563 Q562.5625,54.7188 562.5625,56.8125 Q562.5625,58.9063 563.25,59.9844 Q563.9375,61.0469 565.2813,61.0469 Q565.9063,61.0469 566.5,60.7813 Q567.0938,60.5 567.7188,59.9219 L567.7188,62.6406 Z " fill="#000000"/><text fill="#000000" font-family="sans-serif" font-size="14" lengthAdjust="spacing" textLength="66" x="585.25" y="61.8467">CryptoUtil</text><line style="stroke:#181818;stroke-width:0.5;" x1="328" x2="876" y1="73" y2="73"/><rect fill="none" height="6" style="stroke:#C82930;stroke-width:1.0;" width="6" x="335" y="83.6484"/><text fill="#000000" font-family="sans-serif" font-size="14" lengthAdjust="spacing" text-decoration="underline" textLength="142" x="347" y="89.9951">privatekeyfile : String</text><rect fill="none" height="6" style="stroke:#C82930;stroke-width:1.0;" width="6" x="335" y="99.9453"/><text fill="#000000" font-family="sans-serif" font-size="14" lengthAdjust="spacing" text-decoration="underline" textLength="123" x="347" y="106.292">pubkeyfile : String</text><line style="stroke:#181818;stroke-width:0.5;" x1="328" x2="876" y1="113.5938" y2="113.5938"/><rect fill="#F24D5C" height="6" style="stroke:#C82930;stroke-width:1.0;" width="6" x="335" y="124.2422"/><text fill="#000000" font-family="sans-serif" font-size="14" lengthAdjust="spacing" textLength="76" x="347" y="130.5889">CryptoUtil()</text><ellipse cx="338" cy="143.5391" fill="#84BE84" rx="3" ry="3" style="stroke:#038048;stroke-width:1.0;"/><text fill="#000000" font-family="sans-serif" font-size="14" lengthAdjust="spacing" text-decoration="underline" textLength="306" x="347" y="146.8857">getFileFromResource(fileName : String) : File</text><rect fill="#F24D5C" height="6" style="stroke:#C82930;stroke-width:1.0;" width="6" x="335" y="156.8359"/><text fill="#000000" font-family="sans-serif" font-size="14" lengthAdjust="spacing" text-decoration="underline" textLength="433" x="347" y="163.1826">getFileFromResourceAsStream(fileName : String) : InputStream</text><ellipse cx="338" cy="176.1328" fill="#84BE84" rx="3" ry="3" style="stroke:#038048;stroke-width:1.0;"/><text fill="#000000" font-family="sans-serif" font-size="14" lengthAdjust="spacing" text-decoration="underline" textLength="204" x="347" y="179.4795">getHash(data : String) : String</text><ellipse cx="338" cy="192.4297" fill="#84BE84" rx="3" ry="3" style="stroke:#038048;stroke-width:1.0;"/><text fill="#000000" font-family="sans-serif" font-size="14" lengthAdjust="spacing" text-decoration="underline" textLength="213" x="347" y="195.7764">getKeyPair(index : int) : KeyPair</text><ellipse cx="338" cy="208.7266" fill="#84BE84" rx="3" ry="3" style="stroke:#038048;stroke-width:1.0;"/><text fill="#000000" font-family="sans-serif" font-size="14" lengthAdjust="spacing" text-decoration="underline" textLength="255" x="347" y="212.0732">getPrivateKey(index : int) : PrivateKey</text><ellipse cx="338" cy="225.0234" fill="#84BE84" rx="3" ry="3" style="stroke:#038048;stroke-width:1.0;"/><text fill="#000000" font-family="sans-serif" font-size="14" lengthAdjust="spacing" text-decoration="underline" textLength="245" x="347" y="228.3701">getPublicKey(index : int) : PublicKey</text><ellipse cx="338" cy="241.3203" fill="#84BE84" rx="3" ry="3" style="stroke:#038048;stroke-width:1.0;"/><text fill="#000000" font-family="sans-serif" font-size="14" lengthAdjust="spacing" text-decoration="underline" textLength="259" x="347" y="244.667">getPublicKeyString(index : int) : String</text><ellipse cx="338" cy="257.6172" fill="#84BE84" rx="3" ry="3" style="stroke:#038048;stroke-width:1.0;"/><text fill="#000000" font-family="sans-serif" font-size="14" lengthAdjust="spacing" text-decoration="underline" textLength="344" x="347" y="260.9639">getSignature(index : int, message : String) : String</text><ellipse cx="338" cy="273.9141" fill="#84BE84" rx="3" ry="3" style="stroke:#038048;stroke-width:1.0;"/><text fill="#000000" font-family="sans-serif" font-size="14" lengthAdjust="spacing" text-decoration="underline" textLength="194" x="347" y="277.2607">getUniqueIdentifier() : String</text><ellipse cx="338" cy="290.2109" fill="#84BE84" rx="3" ry="3" style="stroke:#038048;stroke-width:1.0;"/><text fill="#000000" font-family="sans-serif" font-size="14" lengthAdjust="spacing" text-decoration="underline" textLength="467" x="347" y="293.5576">verify(index : int, signatureinput : String, message : String) : boolean</text><ellipse cx="338" cy="306.5078" fill="#84BE84" rx="3" ry="3" style="stroke:#038048;stroke-width:1.0;"/><text fill="#000000" font-family="sans-serif" font-size="14" lengthAdjust="spacing" text-decoration="underline" textLength="524" x="347" y="309.8545">verify(pubKeyStr : String, signatureinput : String, message : String) : boolean</text></g><!--MD5=[839dd9113f011ff64e71f446c2fc22ba]
class NodeKeyGenerator--><g id="elem_NodeKeyGenerator"><rect codeLine="18" fill="#F1F1F1" height="96.8906" id="NodeKeyGenerator" rx="2.5" ry="2.5" style="stroke:#181818;stroke-width:0.5;" width="269" x="22.5" y="130.5"/><ellipse cx="86.75" cy="146.5" fill="#ADD1B2" rx="11" ry="11" style="stroke:#181818;stroke-width:1.0;"/><path d="M89.7188,152.1406 Q89.1406,152.4375 88.5,152.5781 Q87.8594,152.7344 87.1563,152.7344 Q84.6563,152.7344 83.3281,151.0938 Q82.0156,149.4375 82.0156,146.3125 Q82.0156,143.1875 83.3281,141.5313 Q84.6563,139.875 87.1563,139.875 Q87.8594,139.875 88.5,140.0313 Q89.1563,140.1875 89.7188,140.4844 L89.7188,143.2031 Q89.0938,142.625 88.5,142.3594 Q87.9063,142.0781 87.2813,142.0781 Q85.9375,142.0781 85.25,143.1563 Q84.5625,144.2188 84.5625,146.3125 Q84.5625,148.4063 85.25,149.4844 Q85.9375,150.5469 87.2813,150.5469 Q87.9063,150.5469 88.5,150.2813 Q89.0938,150 89.7188,149.4219 L89.7188,152.1406 Z " fill="#000000"/><text fill="#000000" font-family="sans-serif" font-size="14" lengthAdjust="spacing" textLength="132" x="107.25" y="151.3467">NodeKeyGenerator</text><line style="stroke:#181818;stroke-width:0.5;" x1="23.5" x2="290.5" y1="162.5" y2="162.5"/><line style="stroke:#181818;stroke-width:0.5;" x1="23.5" x2="290.5" y1="170.5" y2="170.5"/><ellipse cx="33.5" cy="184.1484" fill="#84BE84" rx="3" ry="3" style="stroke:#038048;stroke-width:1.0;"/><text fill="#000000" font-family="sans-serif" font-size="14" lengthAdjust="spacing" textLength="142" x="42.5" y="187.4951">NodeKeyGenerator()</text><ellipse cx="33.5" cy="200.4453" fill="#84BE84" rx="3" ry="3" style="stroke:#038048;stroke-width:1.0;"/><text fill="#000000" font-family="sans-serif" font-size="14" lengthAdjust="spacing" text-decoration="underline" textLength="243" x="42.5" y="203.792">generateRSAKeyPair(totalkeys : int)</text><ellipse cx="33.5" cy="216.7422" fill="#84BE84" rx="3" ry="3" style="stroke:#038048;stroke-width:1.0;"/><text fill="#000000" font-family="sans-serif" font-size="14" lengthAdjust="spacing" text-decoration="underline" textLength="136" x="42.5" y="220.0889">main(args : String[])</text></g><!--MD5=[81efb0ba42a89092ef717faf33d1e77e]
@startuml
package org.renaultleat.crypto {
  class CryptoUtil {
    - privatekeyfile : String {static}
    - pubkeyfile : String {static}
    - CryptoUtil()
    + getFileFromResource(fileName : String) : File {static}
    - getFileFromResourceAsStream(fileName : String) : InputStream {static}
    + getHash(data : String) : String {static}
    + getKeyPair(index : int) : KeyPair {static}
    + getPrivateKey(index : int) : PrivateKey {static}
    + getPublicKey(index : int) : PublicKey {static}
    + getPublicKeyString(index : int) : String {static}
    + getSignature(index : int, message : String) : String {static}
    + getUniqueIdentifier() : String {static}
    + verify(index : int, signatureinput : String, message : String) : boolean {static}
    + verify(pubKeyStr : String, signatureinput : String, message : String) : boolean {static}
  }
  class NodeKeyGenerator {
    + NodeKeyGenerator()
    + generateRSAKeyPair(totalkeys : int) {static}
    + main(args : String[]) {static}
  }
}
@enduml

PlantUML version 1.2022.7(Mon Aug 22 19:01:30 CEST 2022)
(GPL source distribution)
Java Runtime: OpenJDK Runtime Environment
JVM: OpenJDK 64-Bit Server VM
Default Encoding: UTF-8
Language: en
Country: US
--></g></svg>