<?xml version="1.0" encoding="UTF-8" standalone="no"?><svg xmlns="http://www.w3.org/2000/svg" xmlns:xlink="http://www.w3.org/1999/xlink" contentStyleType="text/css" height="904px" preserveAspectRatio="none" style="width:1492px;height:904px;background:#FFFFFF;" version="1.1" viewBox="0 0 1492 904" width="1492px" zoomAndPan="magnify"><defs/><g><!--MD5=[405c190b41cd6df70be34dd0e93c7f00]
cluster org.renaultleat.node--><g id="cluster_org.renaultleat.node"><path d="M8.5,6 L171.5,6 A3.75,3.75 0 0 1 174,8.5 L181,28.2969 L1482.5,28.2969 A2.5,2.5 0 0 1 1485,30.7969 L1485,894.5 A2.5,2.5 0 0 1 1482.5,897 L8.5,897 A2.5,2.5 0 0 1 6,894.5 L6,8.5 A2.5,2.5 0 0 1 8.5,6 " fill="none" style="stroke:#000000;stroke-width:1.5;"/><line style="stroke:#000000;stroke-width:1.5;" x1="6" x2="181" y1="28.2969" y2="28.2969"/><text fill="#000000" font-family="sans-serif" font-size="14" font-weight="bold" lengthAdjust="spacing" textLength="162" x="10" y="20.9951">org.renaultleat.node</text></g><!--MD5=[f59d84919a43af818e25d7c66b75ad04]
class NonValidator--><g id="elem_NonValidator"><rect codeLine="2" fill="#F1F1F1" height="113.1875" id="NonValidator" rx="2.5" ry="2.5" style="stroke:#181818;stroke-width:0.5;" width="390" x="22" y="228.5"/><ellipse cx="169.25" cy="244.5" fill="#ADD1B2" rx="11" ry="11" style="stroke:#181818;stroke-width:1.0;"/><path d="M172.2188,250.1406 Q171.6406,250.4375 171,250.5781 Q170.3594,250.7344 169.6563,250.7344 Q167.1563,250.7344 165.8281,249.0938 Q164.5156,247.4375 164.5156,244.3125 Q164.5156,241.1875 165.8281,239.5313 Q167.1563,237.875 169.6563,237.875 Q170.3594,237.875 171,238.0313 Q171.6563,238.1875 172.2188,238.4844 L172.2188,241.2031 Q171.5938,240.625 171,240.3594 Q170.4063,240.0781 169.7813,240.0781 Q168.4375,240.0781 167.75,241.1563 Q167.0625,242.2188 167.0625,244.3125 Q167.0625,246.4063 167.75,247.4844 Q168.4375,248.5469 169.7813,248.5469 Q170.4063,248.5469 171,248.2813 Q171.5938,248 172.2188,247.4219 L172.2188,250.1406 Z " fill="#000000"/><text fill="#000000" font-family="sans-serif" font-size="14" lengthAdjust="spacing" textLength="87" x="189.75" y="249.3467">NonValidator</text><line style="stroke:#181818;stroke-width:0.5;" x1="23" x2="411" y1="260.5" y2="260.5"/><polygon fill="none" points="33,270.1484,29,276.1484,37,276.1484" style="stroke:#1963A0;stroke-width:1.0;"/><text fill="#000000" font-family="sans-serif" font-size="14" lengthAdjust="spacing" textLength="225" x="42" y="277.4951">allNodePublicKeys : List&lt;String&gt;</text><line style="stroke:#181818;stroke-width:0.5;" x1="23" x2="411" y1="284.7969" y2="284.7969"/><ellipse cx="33" cy="298.4453" fill="#84BE84" rx="3" ry="3" style="stroke:#038048;stroke-width:1.0;"/><text fill="#000000" font-family="sans-serif" font-size="14" lengthAdjust="spacing" textLength="97" x="42" y="301.792">NonValidator()</text><ellipse cx="33" cy="314.7422" fill="#84BE84" rx="3" ry="3" style="stroke:#038048;stroke-width:1.0;"/><text fill="#000000" font-family="sans-serif" font-size="14" lengthAdjust="spacing" textLength="247" x="42" y="318.0889">generateAddresses() : List&lt;String&gt;</text><ellipse cx="33" cy="331.0391" fill="#84BE84" rx="3" ry="3" style="stroke:#038048;stroke-width:1.0;"/><text fill="#000000" font-family="sans-serif" font-size="14" lengthAdjust="spacing" textLength="364" x="42" y="334.3857">isValidNonValidator(nodePublicKey : String) : boolean</text></g><!--MD5=[4555bb1b0911a5adf28ce6dbe60fed2e]
class Transaction--><g id="elem_Transaction"><rect codeLine="8" fill="#F1F1F1" height="488.0156" id="Transaction" rx="2.5" ry="2.5" style="stroke:#181818;stroke-width:0.5;" width="1021" x="447.5" y="41"/><ellipse cx="913.25" cy="57" fill="#ADD1B2" rx="11" ry="11" style="stroke:#181818;stroke-width:1.0;"/><path d="M916.2188,62.6406 Q915.6406,62.9375 915,63.0781 Q914.3594,63.2344 913.6563,63.2344 Q911.1563,63.2344 909.8281,61.5938 Q908.5156,59.9375 908.5156,56.8125 Q908.5156,53.6875 909.8281,52.0313 Q911.1563,50.375 913.6563,50.375 Q914.3594,50.375 915,50.5313 Q915.6563,50.6875 916.2188,50.9844 L916.2188,53.7031 Q915.5938,53.125 915,52.8594 Q914.4063,52.5781 913.7813,52.5781 Q912.4375,52.5781 911.75,53.6563 Q911.0625,54.7188 911.0625,56.8125 Q911.0625,58.9063 911.75,59.9844 Q912.4375,61.0469 913.7813,61.0469 Q914.4063,61.0469 915,60.7813 Q915.5938,60.5 916.2188,59.9219 L916.2188,62.6406 Z " fill="#000000"/><text fill="#000000" font-family="sans-serif" font-size="14" lengthAdjust="spacing" textLength="81" x="933.75" y="61.8467">Transaction</text><line style="stroke:#181818;stroke-width:0.5;" x1="448.5" x2="1467.5" y1="73" y2="73"/><ellipse cx="458.5" cy="86.6484" fill="none" rx="3" ry="3" style="stroke:#038048;stroke-width:1.0;"/><text fill="#000000" font-family="sans-serif" font-size="14" lengthAdjust="spacing" textLength="84" x="467.5" y="89.9951">from : String</text><ellipse cx="458.5" cy="102.9453" fill="none" rx="3" ry="3" style="stroke:#038048;stroke-width:1.0;"/><text fill="#000000" font-family="sans-serif" font-size="14" lengthAdjust="spacing" textLength="87" x="467.5" y="106.292">hash : String</text><ellipse cx="458.5" cy="119.2422" fill="none" rx="3" ry="3" style="stroke:#038048;stroke-width:1.0;"/><text fill="#000000" font-family="sans-serif" font-size="14" lengthAdjust="spacing" textLength="65" x="467.5" y="122.5889">id : String</text><ellipse cx="458.5" cy="135.5391" fill="none" rx="3" ry="3" style="stroke:#038048;stroke-width:1.0;"/><text fill="#000000" font-family="sans-serif" font-size="14" lengthAdjust="spacing" textLength="88" x="467.5" y="138.8857">input : String</text><ellipse cx="458.5" cy="151.8359" fill="none" rx="3" ry="3" style="stroke:#038048;stroke-width:1.0;"/><text fill="#000000" font-family="sans-serif" font-size="14" lengthAdjust="spacing" textLength="101" x="467.5" y="155.1826">nodeid : String</text><ellipse cx="458.5" cy="168.1328" fill="none" rx="3" ry="3" style="stroke:#038048;stroke-width:1.0;"/><text fill="#000000" font-family="sans-serif" font-size="14" lengthAdjust="spacing" textLength="103" x="467.5" y="171.4795">nodeindex : int</text><ellipse cx="458.5" cy="184.4297" fill="none" rx="3" ry="3" style="stroke:#038048;stroke-width:1.0;"/><text fill="#000000" font-family="sans-serif" font-size="14" lengthAdjust="spacing" textLength="118" x="467.5" y="187.7764">signature : String</text><ellipse cx="458.5" cy="200.7266" fill="none" rx="3" ry="3" style="stroke:#038048;stroke-width:1.0;"/><text fill="#000000" font-family="sans-serif" font-size="14" lengthAdjust="spacing" textLength="163" x="467.5" y="204.0732">timestamp : Timestamp</text><line style="stroke:#181818;stroke-width:0.5;" x1="448.5" x2="1467.5" y1="211.375" y2="211.375"/><ellipse cx="458.5" cy="225.0234" fill="#84BE84" rx="3" ry="3" style="stroke:#038048;stroke-width:1.0;"/><text fill="#000000" font-family="sans-serif" font-size="14" lengthAdjust="spacing" textLength="275" x="467.5" y="228.3701">Transaction(data : String, wallet : Wallet)</text><ellipse cx="458.5" cy="241.3203" fill="#84BE84" rx="3" ry="3" style="stroke:#038048;stroke-width:1.0;"/><text fill="#000000" font-family="sans-serif" font-size="14" lengthAdjust="spacing" textLength="995" x="467.5" y="244.667">Transaction(id : String, from : String, nodeId : String, nodeIndex : int, input : String, inputTimestamp : Timestamp, hash : String, signature : String)</text><ellipse cx="458.5" cy="257.6172" fill="#84BE84" rx="3" ry="3" style="stroke:#038048;stroke-width:1.0;"/><text fill="#000000" font-family="sans-serif" font-size="14" lengthAdjust="spacing" textLength="121" x="467.5" y="260.9639">getFrom() : String</text><ellipse cx="458.5" cy="273.9141" fill="#84BE84" rx="3" ry="3" style="stroke:#038048;stroke-width:1.0;"/><text fill="#000000" font-family="sans-serif" font-size="14" lengthAdjust="spacing" textLength="121" x="467.5" y="277.2607">getHash() : String</text><ellipse cx="458.5" cy="290.2109" fill="#84BE84" rx="3" ry="3" style="stroke:#038048;stroke-width:1.0;"/><text fill="#000000" font-family="sans-serif" font-size="14" lengthAdjust="spacing" textLength="98" x="467.5" y="293.5576">getId() : String</text><ellipse cx="458.5" cy="306.5078" fill="#84BE84" rx="3" ry="3" style="stroke:#038048;stroke-width:1.0;"/><text fill="#000000" font-family="sans-serif" font-size="14" lengthAdjust="spacing" textLength="121" x="467.5" y="309.8545">getInput() : String</text><ellipse cx="458.5" cy="322.8047" fill="#84BE84" rx="3" ry="3" style="stroke:#038048;stroke-width:1.0;"/><text fill="#000000" font-family="sans-serif" font-size="14" lengthAdjust="spacing" textLength="135" x="467.5" y="326.1514">getNodeid() : String</text><ellipse cx="458.5" cy="339.1016" fill="#84BE84" rx="3" ry="3" style="stroke:#038048;stroke-width:1.0;"/><text fill="#000000" font-family="sans-serif" font-size="14" lengthAdjust="spacing" textLength="137" x="467.5" y="342.4482">getNodeindex() : int</text><ellipse cx="458.5" cy="355.3984" fill="#84BE84" rx="3" ry="3" style="stroke:#038048;stroke-width:1.0;"/><text fill="#000000" font-family="sans-serif" font-size="14" lengthAdjust="spacing" textLength="152" x="467.5" y="358.7451">getSignature() : String</text><ellipse cx="458.5" cy="371.6953" fill="#84BE84" rx="3" ry="3" style="stroke:#038048;stroke-width:1.0;"/><text fill="#000000" font-family="sans-serif" font-size="14" lengthAdjust="spacing" textLength="200" x="467.5" y="375.042">getTimestamp() : Timestamp</text><ellipse cx="458.5" cy="387.9922" fill="#84BE84" rx="3" ry="3" style="stroke:#038048;stroke-width:1.0;"/><text fill="#000000" font-family="sans-serif" font-size="14" lengthAdjust="spacing" textLength="151" x="467.5" y="391.3389">setFrom(from : String)</text><ellipse cx="458.5" cy="404.2891" fill="#84BE84" rx="3" ry="3" style="stroke:#038048;stroke-width:1.0;"/><text fill="#000000" font-family="sans-serif" font-size="14" lengthAdjust="spacing" textLength="154" x="467.5" y="407.6357">setHash(hash : String)</text><ellipse cx="458.5" cy="420.5859" fill="#84BE84" rx="3" ry="3" style="stroke:#038048;stroke-width:1.0;"/><text fill="#000000" font-family="sans-serif" font-size="14" lengthAdjust="spacing" textLength="109" x="467.5" y="423.9326">setId(id : String)</text><ellipse cx="458.5" cy="436.8828" fill="#84BE84" rx="3" ry="3" style="stroke:#038048;stroke-width:1.0;"/><text fill="#000000" font-family="sans-serif" font-size="14" lengthAdjust="spacing" textLength="155" x="467.5" y="440.2295">setInput(input : String)</text><ellipse cx="458.5" cy="453.1797" fill="#84BE84" rx="3" ry="3" style="stroke:#038048;stroke-width:1.0;"/><text fill="#000000" font-family="sans-serif" font-size="14" lengthAdjust="spacing" textLength="182" x="467.5" y="456.5264">setNodeid(nodeid : String)</text><ellipse cx="458.5" cy="469.4766" fill="#84BE84" rx="3" ry="3" style="stroke:#038048;stroke-width:1.0;"/><text fill="#000000" font-family="sans-serif" font-size="14" lengthAdjust="spacing" textLength="209" x="467.5" y="472.8232">setNodeindex(nodeindex : int)</text><ellipse cx="458.5" cy="485.7734" fill="#84BE84" rx="3" ry="3" style="stroke:#038048;stroke-width:1.0;"/><text fill="#000000" font-family="sans-serif" font-size="14" lengthAdjust="spacing" textLength="216" x="467.5" y="489.1201">setSignature(signature : String)</text><ellipse cx="458.5" cy="502.0703" fill="#84BE84" rx="3" ry="3" style="stroke:#038048;stroke-width:1.0;"/><text fill="#000000" font-family="sans-serif" font-size="14" lengthAdjust="spacing" textLength="272" x="467.5" y="505.417">setTimestamp(timestamp : Timestamp)</text><ellipse cx="458.5" cy="518.3672" fill="#84BE84" rx="3" ry="3" style="stroke:#038048;stroke-width:1.0;"/><text fill="#000000" font-family="sans-serif" font-size="14" lengthAdjust="spacing" text-decoration="underline" textLength="366" x="467.5" y="521.7139">verifyTransaction(transaction : Transaction) : boolean</text></g><!--MD5=[ca2d93c45117619035e2f39704bd7f41]
class Validator--><g id="elem_Validator"><rect codeLine="37" fill="#F1F1F1" height="113.1875" id="Validator" rx="2.5" ry="2.5" style="stroke:#181818;stroke-width:0.5;" width="362" x="36" y="678.5"/><ellipse cx="183.25" cy="694.5" fill="#ADD1B2" rx="11" ry="11" style="stroke:#181818;stroke-width:1.0;"/><path d="M186.2188,700.1406 Q185.6406,700.4375 185,700.5781 Q184.3594,700.7344 183.6563,700.7344 Q181.1563,700.7344 179.8281,699.0938 Q178.5156,697.4375 178.5156,694.3125 Q178.5156,691.1875 179.8281,689.5313 Q181.1563,687.875 183.6563,687.875 Q184.3594,687.875 185,688.0313 Q185.6563,688.1875 186.2188,688.4844 L186.2188,691.2031 Q185.5938,690.625 185,690.3594 Q184.4063,690.0781 183.7813,690.0781 Q182.4375,690.0781 181.75,691.1563 Q181.0625,692.2188 181.0625,694.3125 Q181.0625,696.4063 181.75,697.4844 Q182.4375,698.5469 183.7813,698.5469 Q184.4063,698.5469 185,698.2813 Q185.5938,698 186.2188,697.4219 L186.2188,700.1406 Z " fill="#000000"/><text fill="#000000" font-family="sans-serif" font-size="14" lengthAdjust="spacing" textLength="59" x="203.75" y="699.3467">Validator</text><line style="stroke:#181818;stroke-width:0.5;" x1="37" x2="397" y1="710.5" y2="710.5"/><polygon fill="none" points="47,720.1484,43,726.1484,51,726.1484" style="stroke:#1963A0;stroke-width:1.0;"/><text fill="#000000" font-family="sans-serif" font-size="14" lengthAdjust="spacing" textLength="225" x="56" y="727.4951">allNodePublicKeys : List&lt;String&gt;</text><line style="stroke:#181818;stroke-width:0.5;" x1="37" x2="397" y1="734.7969" y2="734.7969"/><ellipse cx="47" cy="748.4453" fill="#84BE84" rx="3" ry="3" style="stroke:#038048;stroke-width:1.0;"/><text fill="#000000" font-family="sans-serif" font-size="14" lengthAdjust="spacing" textLength="69" x="56" y="751.792">Validator()</text><ellipse cx="47" cy="764.7422" fill="#84BE84" rx="3" ry="3" style="stroke:#038048;stroke-width:1.0;"/><text fill="#000000" font-family="sans-serif" font-size="14" lengthAdjust="spacing" textLength="247" x="56" y="768.0889">generateAddresses() : List&lt;String&gt;</text><ellipse cx="47" cy="781.0391" fill="#84BE84" rx="3" ry="3" style="stroke:#038048;stroke-width:1.0;"/><text fill="#000000" font-family="sans-serif" font-size="14" lengthAdjust="spacing" textLength="336" x="56" y="784.3857">isValidValidator(nodePublicKey : String) : boolean</text></g><!--MD5=[9f070bf9f108c27faa2eb76515c78fb3]
class Wallet--><g id="elem_Wallet"><rect codeLine="43" fill="#F1F1F1" height="292.4531" id="Wallet" rx="2.5" ry="2.5" style="stroke:#181818;stroke-width:0.5;" width="372" x="433" y="589"/><ellipse cx="594.25" cy="605" fill="#ADD1B2" rx="11" ry="11" style="stroke:#181818;stroke-width:1.0;"/><path d="M597.2188,610.6406 Q596.6406,610.9375 596,611.0781 Q595.3594,611.2344 594.6563,611.2344 Q592.1563,611.2344 590.8281,609.5938 Q589.5156,607.9375 589.5156,604.8125 Q589.5156,601.6875 590.8281,600.0313 Q592.1563,598.375 594.6563,598.375 Q595.3594,598.375 596,598.5313 Q596.6563,598.6875 597.2188,598.9844 L597.2188,601.7031 Q596.5938,601.125 596,600.8594 Q595.4063,600.5781 594.7813,600.5781 Q593.4375,600.5781 592.75,601.6563 Q592.0625,602.7188 592.0625,604.8125 Q592.0625,606.9063 592.75,607.9844 Q593.4375,609.0469 594.7813,609.0469 Q595.4063,609.0469 596,608.7813 Q596.5938,608.5 597.2188,607.9219 L597.2188,610.6406 Z " fill="#000000"/><text fill="#000000" font-family="sans-serif" font-size="14" lengthAdjust="spacing" textLength="41" x="614.75" y="609.8467">Wallet</text><line style="stroke:#181818;stroke-width:0.5;" x1="434" x2="804" y1="621" y2="621"/><polygon fill="none" points="444,630.6484,440,636.6484,448,636.6484" style="stroke:#1963A0;stroke-width:1.0;"/><text fill="#000000" font-family="sans-serif" font-size="14" lengthAdjust="spacing" textLength="112" x="453" y="637.9951">keypair : KeyPair</text><ellipse cx="444" cy="650.9453" fill="none" rx="3" ry="3" style="stroke:#038048;stroke-width:1.0;"/><text fill="#000000" font-family="sans-serif" font-size="14" lengthAdjust="spacing" textLength="101" x="453" y="654.292">nodeid : String</text><ellipse cx="444" cy="667.2422" fill="none" rx="3" ry="3" style="stroke:#038048;stroke-width:1.0;"/><text fill="#000000" font-family="sans-serif" font-size="14" lengthAdjust="spacing" text-decoration="underline" textLength="103" x="453" y="670.5889">nodeindex : int</text><ellipse cx="444" cy="683.5391" fill="none" rx="3" ry="3" style="stroke:#038048;stroke-width:1.0;"/><text fill="#000000" font-family="sans-serif" font-size="14" lengthAdjust="spacing" text-decoration="underline" textLength="147" x="453" y="686.8857">nodeproperty : String</text><polygon fill="none" points="444,695.8359,440,701.8359,448,701.8359" style="stroke:#1963A0;stroke-width:1.0;"/><text fill="#000000" font-family="sans-serif" font-size="14" lengthAdjust="spacing" textLength="119" x="453" y="703.1826">publicKey : String</text><line style="stroke:#181818;stroke-width:0.5;" x1="434" x2="804" y1="710.4844" y2="710.4844"/><ellipse cx="444" cy="724.1328" fill="#84BE84" rx="3" ry="3" style="stroke:#038048;stroke-width:1.0;"/><text fill="#000000" font-family="sans-serif" font-size="14" lengthAdjust="spacing" textLength="51" x="453" y="727.4795">Wallet()</text><ellipse cx="444" cy="740.4297" fill="#84BE84" rx="3" ry="3" style="stroke:#038048;stroke-width:1.0;"/><text fill="#000000" font-family="sans-serif" font-size="14" lengthAdjust="spacing" textLength="346" x="453" y="743.7764">createTransaction(message : String) : Transaction</text><ellipse cx="444" cy="756.7266" fill="#84BE84" rx="3" ry="3" style="stroke:#038048;stroke-width:1.0;"/><text fill="#000000" font-family="sans-serif" font-size="14" lengthAdjust="spacing" textLength="146" x="453" y="760.0732">getKeyPair() : KeyPair</text><ellipse cx="444" cy="773.0234" fill="#84BE84" rx="3" ry="3" style="stroke:#038048;stroke-width:1.0;"/><text fill="#000000" font-family="sans-serif" font-size="14" lengthAdjust="spacing" textLength="135" x="453" y="776.3701">getNodeId() : String</text><ellipse cx="444" cy="789.3203" fill="#84BE84" rx="3" ry="3" style="stroke:#038048;stroke-width:1.0;"/><text fill="#000000" font-family="sans-serif" font-size="14" lengthAdjust="spacing" text-decoration="underline" textLength="137" x="453" y="792.667">getNodeIndex() : int</text><ellipse cx="444" cy="805.6172" fill="#84BE84" rx="3" ry="3" style="stroke:#038048;stroke-width:1.0;"/><text fill="#000000" font-family="sans-serif" font-size="14" lengthAdjust="spacing" text-decoration="underline" textLength="181" x="453" y="808.9639">getNodeproperty() : String</text><ellipse cx="444" cy="821.9141" fill="#84BE84" rx="3" ry="3" style="stroke:#038048;stroke-width:1.0;"/><text fill="#000000" font-family="sans-serif" font-size="14" lengthAdjust="spacing" textLength="152" x="453" y="825.2607">getPublicKey() : String</text><ellipse cx="444" cy="838.2109" fill="#84BE84" rx="3" ry="3" style="stroke:#038048;stroke-width:1.0;"/><text fill="#000000" font-family="sans-serif" font-size="14" lengthAdjust="spacing" textLength="128" x="453" y="841.5576">initalise(index : int)</text><ellipse cx="444" cy="854.5078" fill="#84BE84" rx="3" ry="3" style="stroke:#038048;stroke-width:1.0;"/><text fill="#000000" font-family="sans-serif" font-size="14" lengthAdjust="spacing" text-decoration="underline" textLength="214" x="453" y="857.8545">setnodeproperty(input : String)</text><ellipse cx="444" cy="870.8047" fill="#84BE84" rx="3" ry="3" style="stroke:#038048;stroke-width:1.0;"/><text fill="#000000" font-family="sans-serif" font-size="14" lengthAdjust="spacing" textLength="241" x="453" y="874.1514">signData(message : String) : String</text></g><!--MD5=[dffc732fa7d3ffd4206b8f2ce9009f8b]
@startuml
package org.renaultleat.node {
  class NonValidator {
    ~ allNodePublicKeys : List<String>
    + NonValidator()
    + generateAddresses() : List<String>
    + isValidNonValidator(nodePublicKey : String) : boolean
  }
  class Transaction {
    + from : String
    + hash : String
    + id : String
    + input : String
    + nodeid : String
    + nodeindex : int
    + signature : String
    + timestamp : Timestamp
    + Transaction(data : String, wallet : Wallet)
    + Transaction(id : String, from : String, nodeId : String, nodeIndex : int, input : String, inputTimestamp : Timestamp, hash : String, signature : String)
    + getFrom() : String
    + getHash() : String
    + getId() : String
    + getInput() : String
    + getNodeid() : String
    + getNodeindex() : int
    + getSignature() : String
    + getTimestamp() : Timestamp
    + setFrom(from : String)
    + setHash(hash : String)
    + setId(id : String)
    + setInput(input : String)
    + setNodeid(nodeid : String)
    + setNodeindex(nodeindex : int)
    + setSignature(signature : String)
    + setTimestamp(timestamp : Timestamp)
    + verifyTransaction(transaction : Transaction) : boolean {static}
  }
  class Validator {
    ~ allNodePublicKeys : List<String>
    + Validator()
    + generateAddresses() : List<String>
    + isValidValidator(nodePublicKey : String) : boolean
  }
  class Wallet {
    ~ keypair : KeyPair
    + nodeid : String
    + nodeindex : int {static}
    + nodeproperty : String {static}
    ~ publicKey : String
    + Wallet()
    + createTransaction(message : String) : Transaction
    + getKeyPair() : KeyPair
    + getNodeId() : String
    + getNodeIndex() : int {static}
    + getNodeproperty() : String {static}
    + getPublicKey() : String
    + initalise(index : int)
    + setnodeproperty(input : String) {static}
    + signData(message : String) : String
  }
}
@enduml

PlantUML version 1.2022.7(Mon Aug 22 19:01:30 CEST 2022)
(GPL source distribution)
Java Runtime: OpenJDK Runtime Environment
JVM: OpenJDK 64-Bit Server VM
Default Encoding: UTF-8
Language: en
Country: US
--></g></svg>