<?xml version="1.0" encoding="UTF-8" standalone="no"?><svg xmlns="http://www.w3.org/2000/svg" xmlns:xlink="http://www.w3.org/1999/xlink" contentStyleType="text/css" height="862px" preserveAspectRatio="none" style="width:477px;height:862px;background:#FFFFFF;" version="1.1" viewBox="0 0 477 862" width="477px" zoomAndPan="magnify"><defs/><g><!--MD5=[0adbbcd27650d988717e92397e83c1c7]
cluster org.renaultleat.properties--><g id="cluster_org.renaultleat.properties"><path d="M8.5,6 L214.5,6 A3.75,3.75 0 0 1 217,8.5 L224,28.2969 L467.5,28.2969 A2.5,2.5 0 0 1 470,30.7969 L470,852.5 A2.5,2.5 0 0 1 467.5,855 L8.5,855 A2.5,2.5 0 0 1 6,852.5 L6,8.5 A2.5,2.5 0 0 1 8.5,6 " fill="none" style="stroke:#000000;stroke-width:1.5;"/><line style="stroke:#000000;stroke-width:1.5;" x1="6" x2="224" y1="28.2969" y2="28.2969"/><text fill="#000000" font-family="sans-serif" font-size="14" font-weight="bold" lengthAdjust="spacing" textLength="205" x="10" y="20.9951">org.renaultleat.properties</text></g><!--MD5=[d56245bddce73c857cdb7966439e0314]
class NodeDevProperty--><g id="elem_NodeDevProperty"><rect codeLine="2" fill="#F1F1F1" height="227.2656" id="NodeDevProperty" rx="2.5" ry="2.5" style="stroke:#181818;stroke-width:0.5;" width="158" x="296" y="326.5"/><ellipse cx="312.8" cy="342.5" fill="#ADD1B2" rx="11" ry="11" style="stroke:#181818;stroke-width:1.0;"/><path d="M315.7688,348.1406 Q315.1906,348.4375 314.55,348.5781 Q313.9094,348.7344 313.2063,348.7344 Q310.7063,348.7344 309.3781,347.0938 Q308.0656,345.4375 308.0656,342.3125 Q308.0656,339.1875 309.3781,337.5313 Q310.7063,335.875 313.2063,335.875 Q313.9094,335.875 314.55,336.0313 Q315.2063,336.1875 315.7688,336.4844 L315.7688,339.2031 Q315.1438,338.625 314.55,338.3594 Q313.9563,338.0781 313.3313,338.0781 Q311.9875,338.0781 311.3,339.1563 Q310.6125,340.2188 310.6125,342.3125 Q310.6125,344.4063 311.3,345.4844 Q311.9875,346.5469 313.3313,346.5469 Q313.9563,346.5469 314.55,346.2813 Q315.1438,346 315.7688,345.4219 L315.7688,348.1406 Z " fill="#000000"/><text fill="#000000" font-family="sans-serif" font-size="14" lengthAdjust="spacing" textLength="122" x="327.2" y="347.3467">NodeDevProperty</text><line style="stroke:#181818;stroke-width:0.5;" x1="297" x2="453" y1="358.5" y2="358.5"/><ellipse cx="307" cy="372.1484" fill="none" rx="3" ry="3" style="stroke:#038048;stroke-width:1.0;"/><text fill="#000000" font-family="sans-serif" font-size="14" lengthAdjust="spacing" text-decoration="underline" textLength="95" x="316" y="375.4951">blocksize : int</text><ellipse cx="307" cy="388.4453" fill="none" rx="3" ry="3" style="stroke:#038048;stroke-width:1.0;"/><text fill="#000000" font-family="sans-serif" font-size="14" lengthAdjust="spacing" text-decoration="underline" textLength="117" x="316" y="391.792">deployed : String</text><ellipse cx="307" cy="404.7422" fill="none" rx="3" ry="3" style="stroke:#038048;stroke-width:1.0;"/><text fill="#000000" font-family="sans-serif" font-size="14" lengthAdjust="spacing" text-decoration="underline" textLength="65" x="316" y="408.0889">ip : String</text><ellipse cx="307" cy="421.0391" fill="none" rx="3" ry="3" style="stroke:#038048;stroke-width:1.0;"/><text fill="#000000" font-family="sans-serif" font-size="14" lengthAdjust="spacing" text-decoration="underline" textLength="121" x="316" y="424.3857">minapprovals : int</text><ellipse cx="307" cy="437.3359" fill="none" rx="3" ry="3" style="stroke:#038048;stroke-width:1.0;"/><text fill="#000000" font-family="sans-serif" font-size="14" lengthAdjust="spacing" text-decoration="underline" textLength="78" x="316" y="440.6826">nodeid : int</text><ellipse cx="307" cy="453.6328" fill="none" rx="3" ry="3" style="stroke:#038048;stroke-width:1.0;"/><text fill="#000000" font-family="sans-serif" font-size="14" lengthAdjust="spacing" text-decoration="underline" textLength="110" x="316" y="456.9795">nodeid_sec : int</text><ellipse cx="307" cy="469.9297" fill="none" rx="3" ry="3" style="stroke:#038048;stroke-width:1.0;"/><text fill="#000000" font-family="sans-serif" font-size="14" lengthAdjust="spacing" text-decoration="underline" textLength="89" x="316" y="473.2764">ports : String</text><ellipse cx="307" cy="486.2266" fill="none" rx="3" ry="3" style="stroke:#038048;stroke-width:1.0;"/><text fill="#000000" font-family="sans-serif" font-size="14" lengthAdjust="spacing" text-decoration="underline" textLength="92" x="316" y="489.5732">totalkeys : int</text><ellipse cx="307" cy="502.5234" fill="none" rx="3" ry="3" style="stroke:#038048;stroke-width:1.0;"/><text fill="#000000" font-family="sans-serif" font-size="14" lengthAdjust="spacing" text-decoration="underline" textLength="104" x="316" y="505.8701">totalnodes : int</text><ellipse cx="307" cy="518.8203" fill="none" rx="3" ry="3" style="stroke:#038048;stroke-width:1.0;"/><text fill="#000000" font-family="sans-serif" font-size="14" lengthAdjust="spacing" text-decoration="underline" textLength="92" x="316" y="522.167">users : String</text><line style="stroke:#181818;stroke-width:0.5;" x1="297" x2="453" y1="529.4688" y2="529.4688"/><ellipse cx="307" cy="543.1172" fill="#84BE84" rx="3" ry="3" style="stroke:#038048;stroke-width:1.0;"/><text fill="#000000" font-family="sans-serif" font-size="14" lengthAdjust="spacing" textLength="132" x="316" y="546.4639">NodeDevProperty()</text></g><!--MD5=[89a6ba7922817c3dda9c7b1866f2df6c]
class NodeProperty--><g id="elem_NodeProperty"><rect codeLine="15" fill="#F1F1F1" height="797.6563" id="NodeProperty" rx="2.5" ry="2.5" style="stroke:#181818;stroke-width:0.5;" width="239" x="21.5" y="41"/><ellipse cx="89.25" cy="57" fill="#ADD1B2" rx="11" ry="11" style="stroke:#181818;stroke-width:1.0;"/><path d="M92.2188,62.6406 Q91.6406,62.9375 91,63.0781 Q90.3594,63.2344 89.6563,63.2344 Q87.1563,63.2344 85.8281,61.5938 Q84.5156,59.9375 84.5156,56.8125 Q84.5156,53.6875 85.8281,52.0313 Q87.1563,50.375 89.6563,50.375 Q90.3594,50.375 91,50.5313 Q91.6563,50.6875 92.2188,50.9844 L92.2188,53.7031 Q91.5938,53.125 91,52.8594 Q90.4063,52.5781 89.7813,52.5781 Q88.4375,52.5781 87.75,53.6563 Q87.0625,54.7188 87.0625,56.8125 Q87.0625,58.9063 87.75,59.9844 Q88.4375,61.0469 89.7813,61.0469 Q90.4063,61.0469 91,60.7813 Q91.5938,60.5 92.2188,59.9219 L92.2188,62.6406 Z " fill="#000000"/><text fill="#000000" font-family="sans-serif" font-size="14" lengthAdjust="spacing" textLength="95" x="109.75" y="61.8467">NodeProperty</text><line style="stroke:#181818;stroke-width:0.5;" x1="22.5" x2="259.5" y1="73" y2="73"/><ellipse cx="32.5" cy="86.6484" fill="none" rx="3" ry="3" style="stroke:#038048;stroke-width:1.0;"/><text fill="#000000" font-family="sans-serif" font-size="14" lengthAdjust="spacing" text-decoration="underline" textLength="95" x="41.5" y="89.9951">blocksize : int</text><ellipse cx="32.5" cy="102.9453" fill="none" rx="3" ry="3" style="stroke:#038048;stroke-width:1.0;"/><text fill="#000000" font-family="sans-serif" font-size="14" lengthAdjust="spacing" text-decoration="underline" textLength="117" x="41.5" y="106.292">deployed : String</text><ellipse cx="32.5" cy="119.2422" fill="none" rx="3" ry="3" style="stroke:#038048;stroke-width:1.0;"/><text fill="#000000" font-family="sans-serif" font-size="14" lengthAdjust="spacing" text-decoration="underline" textLength="117" x="41.5" y="122.5889">httpports : String</text><ellipse cx="32.5" cy="135.5391" fill="none" rx="3" ry="3" style="stroke:#038048;stroke-width:1.0;"/><text fill="#000000" font-family="sans-serif" font-size="14" lengthAdjust="spacing" text-decoration="underline" textLength="65" x="41.5" y="138.8857">ip : String</text><ellipse cx="32.5" cy="151.8359" fill="none" rx="3" ry="3" style="stroke:#038048;stroke-width:1.0;"/><text fill="#000000" font-family="sans-serif" font-size="14" lengthAdjust="spacing" text-decoration="underline" textLength="73" x="41.5" y="155.1826">ips : String</text><ellipse cx="32.5" cy="168.1328" fill="none" rx="3" ry="3" style="stroke:#038048;stroke-width:1.0;"/><text fill="#000000" font-family="sans-serif" font-size="14" lengthAdjust="spacing" text-decoration="underline" textLength="139" x="41.5" y="171.4795">isValidator : boolean</text><ellipse cx="32.5" cy="184.4297" fill="none" rx="3" ry="3" style="stroke:#038048;stroke-width:1.0;"/><text fill="#000000" font-family="sans-serif" font-size="14" lengthAdjust="spacing" text-decoration="underline" textLength="92" x="41.5" y="187.7764">latency : long</text><ellipse cx="32.5" cy="200.7266" fill="none" rx="3" ry="3" style="stroke:#038048;stroke-width:1.0;"/><text fill="#000000" font-family="sans-serif" font-size="14" lengthAdjust="spacing" text-decoration="underline" textLength="121" x="41.5" y="204.0732">minapprovals : int</text><ellipse cx="32.5" cy="217.0234" fill="none" rx="3" ry="3" style="stroke:#038048;stroke-width:1.0;"/><text fill="#000000" font-family="sans-serif" font-size="14" lengthAdjust="spacing" text-decoration="underline" textLength="126" x="41.5" y="220.3701">nodeBehavior : int</text><ellipse cx="32.5" cy="233.3203" fill="none" rx="3" ry="3" style="stroke:#038048;stroke-width:1.0;"/><text fill="#000000" font-family="sans-serif" font-size="14" lengthAdjust="spacing" text-decoration="underline" textLength="146" x="41.5" y="236.667">nodeNetwork : String</text><ellipse cx="32.5" cy="249.6172" fill="none" rx="3" ry="3" style="stroke:#038048;stroke-width:1.0;"/><text fill="#000000" font-family="sans-serif" font-size="14" lengthAdjust="spacing" text-decoration="underline" textLength="102" x="41.5" y="252.9639">peercount : int</text><ellipse cx="32.5" cy="265.9141" fill="none" rx="3" ry="3" style="stroke:#038048;stroke-width:1.0;"/><text fill="#000000" font-family="sans-serif" font-size="14" lengthAdjust="spacing" text-decoration="underline" textLength="93" x="41.5" y="269.2607">peers : String</text><ellipse cx="32.5" cy="282.2109" fill="none" rx="3" ry="3" style="stroke:#038048;stroke-width:1.0;"/><text fill="#000000" font-family="sans-serif" font-size="14" lengthAdjust="spacing" text-decoration="underline" textLength="81" x="41.5" y="285.5576">port : String</text><ellipse cx="32.5" cy="298.5078" fill="none" rx="3" ry="3" style="stroke:#038048;stroke-width:1.0;"/><text fill="#000000" font-family="sans-serif" font-size="14" lengthAdjust="spacing" text-decoration="underline" textLength="89" x="41.5" y="301.8545">ports : String</text><ellipse cx="32.5" cy="314.8047" fill="none" rx="3" ry="3" style="stroke:#038048;stroke-width:1.0;"/><text fill="#000000" font-family="sans-serif" font-size="14" lengthAdjust="spacing" text-decoration="underline" textLength="138" x="41.5" y="318.1514">roundChange : long</text><ellipse cx="32.5" cy="331.1016" fill="none" rx="3" ry="3" style="stroke:#038048;stroke-width:1.0;"/><text fill="#000000" font-family="sans-serif" font-size="14" lengthAdjust="spacing" text-decoration="underline" textLength="96" x="41.5" y="334.4482">threshold : int</text><ellipse cx="32.5" cy="347.3984" fill="none" rx="3" ry="3" style="stroke:#038048;stroke-width:1.0;"/><text fill="#000000" font-family="sans-serif" font-size="14" lengthAdjust="spacing" text-decoration="underline" textLength="92" x="41.5" y="350.7451">totalkeys : int</text><ellipse cx="32.5" cy="363.6953" fill="none" rx="3" ry="3" style="stroke:#038048;stroke-width:1.0;"/><text fill="#000000" font-family="sans-serif" font-size="14" lengthAdjust="spacing" text-decoration="underline" textLength="104" x="41.5" y="367.042">totalnodes : int</text><ellipse cx="32.5" cy="379.9922" fill="none" rx="3" ry="3" style="stroke:#038048;stroke-width:1.0;"/><text fill="#000000" font-family="sans-serif" font-size="14" lengthAdjust="spacing" text-decoration="underline" textLength="84" x="41.5" y="383.3389">user : String</text><ellipse cx="32.5" cy="396.2891" fill="none" rx="3" ry="3" style="stroke:#038048;stroke-width:1.0;"/><text fill="#000000" font-family="sans-serif" font-size="14" lengthAdjust="spacing" text-decoration="underline" textLength="92" x="41.5" y="399.6357">users : String</text><ellipse cx="32.5" cy="412.5859" fill="none" rx="3" ry="3" style="stroke:#038048;stroke-width:1.0;"/><text fill="#000000" font-family="sans-serif" font-size="14" lengthAdjust="spacing" text-decoration="underline" textLength="95" x="41.5" y="415.9326">validators : int</text><line style="stroke:#181818;stroke-width:0.5;" x1="22.5" x2="259.5" y1="423.2344" y2="423.2344"/><ellipse cx="32.5" cy="436.8828" fill="#84BE84" rx="3" ry="3" style="stroke:#038048;stroke-width:1.0;"/><text fill="#000000" font-family="sans-serif" font-size="14" lengthAdjust="spacing" textLength="105" x="41.5" y="440.2295">NodeProperty()</text><ellipse cx="32.5" cy="453.1797" fill="#84BE84" rx="3" ry="3" style="stroke:#038048;stroke-width:1.0;"/><text fill="#000000" font-family="sans-serif" font-size="14" lengthAdjust="spacing" text-decoration="underline" textLength="130" x="41.5" y="456.5264">getBlockSize() : int</text><ellipse cx="32.5" cy="469.4766" fill="#84BE84" rx="3" ry="3" style="stroke:#038048;stroke-width:1.0;"/><text fill="#000000" font-family="sans-serif" font-size="14" lengthAdjust="spacing" text-decoration="underline" textLength="143" x="41.5" y="472.8232">getCurrentPort() : int</text><ellipse cx="32.5" cy="485.7734" fill="#84BE84" rx="3" ry="3" style="stroke:#038048;stroke-width:1.0;"/><text fill="#000000" font-family="sans-serif" font-size="14" lengthAdjust="spacing" text-decoration="underline" textLength="98" x="41.5" y="489.1201">getIP() : String</text><ellipse cx="32.5" cy="502.0703" fill="#84BE84" rx="3" ry="3" style="stroke:#038048;stroke-width:1.0;"/><text fill="#000000" font-family="sans-serif" font-size="14" lengthAdjust="spacing" text-decoration="underline" textLength="107" x="41.5" y="505.417">getIPS() : String</text><ellipse cx="32.5" cy="518.3672" fill="#84BE84" rx="3" ry="3" style="stroke:#038048;stroke-width:1.0;"/><text fill="#000000" font-family="sans-serif" font-size="14" lengthAdjust="spacing" text-decoration="underline" textLength="137" x="41.5" y="521.7139">getPeerCount() : int</text><ellipse cx="32.5" cy="534.6641" fill="#84BE84" rx="3" ry="3" style="stroke:#038048;stroke-width:1.0;"/><text fill="#000000" font-family="sans-serif" font-size="14" lengthAdjust="spacing" text-decoration="underline" textLength="126" x="41.5" y="538.0107">getPeers() : String</text><ellipse cx="32.5" cy="550.9609" fill="#84BE84" rx="3" ry="3" style="stroke:#038048;stroke-width:1.0;"/><text fill="#000000" font-family="sans-serif" font-size="14" lengthAdjust="spacing" text-decoration="underline" textLength="176" x="41.5" y="554.3076">getRoundChange() : long</text><ellipse cx="32.5" cy="567.2578" fill="#84BE84" rx="3" ry="3" style="stroke:#038048;stroke-width:1.0;"/><text fill="#000000" font-family="sans-serif" font-size="14" lengthAdjust="spacing" text-decoration="underline" textLength="130" x="41.5" y="570.6045">getValidators() : int</text><ellipse cx="32.5" cy="583.5547" fill="#84BE84" rx="3" ry="3" style="stroke:#038048;stroke-width:1.0;"/><text fill="#000000" font-family="sans-serif" font-size="14" lengthAdjust="spacing" text-decoration="underline" textLength="159" x="41.5" y="586.9014">getnodeBehavior() : int</text><ellipse cx="32.5" cy="599.8516" fill="#84BE84" rx="3" ry="3" style="stroke:#038048;stroke-width:1.0;"/><text fill="#000000" font-family="sans-serif" font-size="14" lengthAdjust="spacing" text-decoration="underline" textLength="165" x="41.5" y="603.1982">getnodeLatency() : long</text><ellipse cx="32.5" cy="616.1484" fill="#84BE84" rx="3" ry="3" style="stroke:#038048;stroke-width:1.0;"/><text fill="#000000" font-family="sans-serif" font-size="14" lengthAdjust="spacing" text-decoration="underline" textLength="179" x="41.5" y="619.4951">getnodeNetwork() : String</text><ellipse cx="32.5" cy="632.4453" fill="#84BE84" rx="3" ry="3" style="stroke:#038048;stroke-width:1.0;"/><text fill="#000000" font-family="sans-serif" font-size="14" lengthAdjust="spacing" text-decoration="underline" textLength="138" x="41.5" y="635.792">gettotalNodes() : int</text><ellipse cx="32.5" cy="648.7422" fill="#84BE84" rx="3" ry="3" style="stroke:#038048;stroke-width:1.0;"/><text fill="#000000" font-family="sans-serif" font-size="14" lengthAdjust="spacing" text-decoration="underline" textLength="149" x="41.5" y="652.0889">isValidator() : boolean</text><ellipse cx="32.5" cy="665.0391" fill="#84BE84" rx="3" ry="3" style="stroke:#038048;stroke-width:1.0;"/><text fill="#000000" font-family="sans-serif" font-size="14" lengthAdjust="spacing" text-decoration="underline" textLength="164" x="41.5" y="668.3857">setBlockSize(input : int)</text><ellipse cx="32.5" cy="681.3359" fill="#84BE84" rx="3" ry="3" style="stroke:#038048;stroke-width:1.0;"/><text fill="#000000" font-family="sans-serif" font-size="14" lengthAdjust="spacing" text-decoration="underline" textLength="141" x="41.5" y="684.6826">setIPS(input : String)</text><ellipse cx="32.5" cy="697.6328" fill="#84BE84" rx="3" ry="3" style="stroke:#038048;stroke-width:1.0;"/><text fill="#000000" font-family="sans-serif" font-size="14" lengthAdjust="spacing" text-decoration="underline" textLength="206" x="41.5" y="700.9795">setIsValidator(input : boolean)</text><ellipse cx="32.5" cy="713.9297" fill="#84BE84" rx="3" ry="3" style="stroke:#038048;stroke-width:1.0;"/><text fill="#000000" font-family="sans-serif" font-size="14" lengthAdjust="spacing" text-decoration="underline" textLength="171" x="41.5" y="717.2764">setPeerCount(input : int)</text><ellipse cx="32.5" cy="730.2266" fill="#84BE84" rx="3" ry="3" style="stroke:#038048;stroke-width:1.0;"/><text fill="#000000" font-family="sans-serif" font-size="14" lengthAdjust="spacing" text-decoration="underline" textLength="160" x="41.5" y="733.5732">setPeers(input : String)</text><ellipse cx="32.5" cy="746.5234" fill="#84BE84" rx="3" ry="3" style="stroke:#038048;stroke-width:1.0;"/><text fill="#000000" font-family="sans-serif" font-size="14" lengthAdjust="spacing" text-decoration="underline" textLength="210" x="41.5" y="749.8701">setRoundChange(input : long)</text><ellipse cx="32.5" cy="762.8203" fill="#84BE84" rx="3" ry="3" style="stroke:#038048;stroke-width:1.0;"/><text fill="#000000" font-family="sans-serif" font-size="14" lengthAdjust="spacing" text-decoration="underline" textLength="164" x="41.5" y="766.167">setValidators(input : int)</text><ellipse cx="32.5" cy="779.1172" fill="#84BE84" rx="3" ry="3" style="stroke:#038048;stroke-width:1.0;"/><text fill="#000000" font-family="sans-serif" font-size="14" lengthAdjust="spacing" text-decoration="underline" textLength="193" x="41.5" y="782.4639">setnodeBehavior(input : int)</text><ellipse cx="32.5" cy="795.4141" fill="#84BE84" rx="3" ry="3" style="stroke:#038048;stroke-width:1.0;"/><text fill="#000000" font-family="sans-serif" font-size="14" lengthAdjust="spacing" text-decoration="underline" textLength="199" x="41.5" y="798.7607">setnodeLatency(input : long)</text><ellipse cx="32.5" cy="811.7109" fill="#84BE84" rx="3" ry="3" style="stroke:#038048;stroke-width:1.0;"/><text fill="#000000" font-family="sans-serif" font-size="14" lengthAdjust="spacing" text-decoration="underline" textLength="213" x="41.5" y="815.0576">setnodeNetwork(input : String)</text><ellipse cx="32.5" cy="828.0078" fill="#84BE84" rx="3" ry="3" style="stroke:#038048;stroke-width:1.0;"/><text fill="#000000" font-family="sans-serif" font-size="14" lengthAdjust="spacing" text-decoration="underline" textLength="172" x="41.5" y="831.3545">settotalNodes(input : int)</text></g><!--MD5=[7ff5e6f4b0bf896f38ef5578dcb016d9]
@startuml
package org.renaultleat.properties {
  class NodeDevProperty {
    + blocksize : int {static}
    + deployed : String {static}
    + ip : String {static}
    + minapprovals : int {static}
    + nodeid : int {static}
    + nodeid_sec : int {static}
    + ports : String {static}
    + totalkeys : int {static}
    + totalnodes : int {static}
    + users : String {static}
    + NodeDevProperty()
  }
  class NodeProperty {
    + blocksize : int {static}
    + deployed : String {static}
    + httpports : String {static}
    + ip : String {static}
    + ips : String {static}
    + isValidator : boolean {static}
    + latency : long {static}
    + minapprovals : int {static}
    + nodeBehavior : int {static}
    + nodeNetwork : String {static}
    + peercount : int {static}
    + peers : String {static}
    + port : String {static}
    + ports : String {static}
    + roundChange : long {static}
    + threshold : int {static}
    + totalkeys : int {static}
    + totalnodes : int {static}
    + user : String {static}
    + users : String {static}
    + validators : int {static}
    + NodeProperty()
    + getBlockSize() : int {static}
    + getCurrentPort() : int {static}
    + getIP() : String {static}
    + getIPS() : String {static}
    + getPeerCount() : int {static}
    + getPeers() : String {static}
    + getRoundChange() : long {static}
    + getValidators() : int {static}
    + getnodeBehavior() : int {static}
    + getnodeLatency() : long {static}
    + getnodeNetwork() : String {static}
    + gettotalNodes() : int {static}
    + isValidator() : boolean {static}
    + setBlockSize(input : int) {static}
    + setIPS(input : String) {static}
    + setIsValidator(input : boolean) {static}
    + setPeerCount(input : int) {static}
    + setPeers(input : String) {static}
    + setRoundChange(input : long) {static}
    + setValidators(input : int) {static}
    + setnodeBehavior(input : int) {static}
    + setnodeLatency(input : long) {static}
    + setnodeNetwork(input : String) {static}
    + settotalNodes(input : int) {static}
  }
}
@enduml

PlantUML version 1.2022.7(Mon Aug 22 19:01:30 CEST 2022)
(GPL source distribution)
Java Runtime: OpenJDK Runtime Environment
JVM: OpenJDK 64-Bit Server VM
Default Encoding: UTF-8
Language: en
Country: US
--></g></svg>