<?xml version="1.0" encoding="UTF-8" standalone="no"?><svg xmlns="http://www.w3.org/2000/svg" xmlns:xlink="http://www.w3.org/1999/xlink" contentStyleType="text/css" height="1377px" preserveAspectRatio="none" style="width:1712px;height:1377px;background:#FFFFFF;" version="1.1" viewBox="0 0 1712 1377" width="1712px" zoomAndPan="magnify"><defs/><g><!--MD5=[93bb0e3d2c9ea0f9e8ab02b5e20dcba2]
cluster org.renaultleat.chain--><g id="cluster_org.renaultleat.chain"><path d="M8.5,6 L173.5,6 A3.75,3.75 0 0 1 176,8.5 L183,28.2969 L1702.5,28.2969 A2.5,2.5 0 0 1 1705,30.7969 L1705,1367.5 A2.5,2.5 0 0 1 1702.5,1370 L8.5,1370 A2.5,2.5 0 0 1 6,1367.5 L6,8.5 A2.5,2.5 0 0 1 8.5,6 " fill="none" style="stroke:#000000;stroke-width:1.5;"/><line style="stroke:#000000;stroke-width:1.5;" x1="6" x2="183" y1="28.2969" y2="28.2969"/><text fill="#000000" font-family="sans-serif" font-size="14" font-weight="bold" lengthAdjust="spacing" textLength="164" x="10" y="20.9951">org.renaultleat.chain</text></g><!--MD5=[68a0c021ad4fbab63794e91c3c368f48]
class Block--><g id="elem_Block"><rect codeLine="2" fill="#F1F1F1" height="813.9531" id="Block" rx="2.5" ry="2.5" style="stroke:#181818;stroke-width:0.5;" width="1306" x="22" y="41"/><ellipse cx="651.75" cy="57" fill="#ADD1B2" rx="11" ry="11" style="stroke:#181818;stroke-width:1.0;"/><path d="M654.7188,62.6406 Q654.1406,62.9375 653.5,63.0781 Q652.8594,63.2344 652.1563,63.2344 Q649.6563,63.2344 648.3281,61.5938 Q647.0156,59.9375 647.0156,56.8125 Q647.0156,53.6875 648.3281,52.0313 Q649.6563,50.375 652.1563,50.375 Q652.8594,50.375 653.5,50.5313 Q654.1563,50.6875 654.7188,50.9844 L654.7188,53.7031 Q654.0938,53.125 653.5,52.8594 Q652.9063,52.5781 652.2813,52.5781 Q650.9375,52.5781 650.25,53.6563 Q649.5625,54.7188 649.5625,56.8125 Q649.5625,58.9063 650.25,59.9844 Q650.9375,61.0469 652.2813,61.0469 Q652.9063,61.0469 653.5,60.7813 Q654.0938,60.5 654.7188,59.9219 L654.7188,62.6406 Z " fill="#000000"/><text fill="#000000" font-family="sans-serif" font-size="14" lengthAdjust="spacing" textLength="38" x="672.25" y="61.8467">Block</text><line style="stroke:#181818;stroke-width:0.5;" x1="23" x2="1327" y1="73" y2="73"/><polygon fill="none" points="33,82.6484,29,88.6484,37,88.6484" style="stroke:#1963A0;stroke-width:1.0;"/><text fill="#000000" font-family="sans-serif" font-size="14" lengthAdjust="spacing" textLength="121" x="42" y="89.9951">blocknumber : int</text><polygon fill="none" points="33,98.9453,29,104.9453,37,104.9453" style="stroke:#1963A0;stroke-width:1.0;"/><text fill="#000000" font-family="sans-serif" font-size="14" lengthAdjust="spacing" textLength="157" x="42" y="106.292">blocktime : Timestamp</text><polygon fill="none" points="33,115.2422,29,121.2422,37,121.2422" style="stroke:#1963A0;stroke-width:1.0;"/><text fill="#000000" font-family="sans-serif" font-size="14" lengthAdjust="spacing" textLength="405" x="42" y="122.5889">commitMessageValidators : CopyOnWriteArrayList&lt;String&gt;</text><polygon fill="none" points="33,131.5391,29,137.5391,37,137.5391" style="stroke:#1963A0;stroke-width:1.0;"/><text fill="#000000" font-family="sans-serif" font-size="14" lengthAdjust="spacing" textLength="87" x="42" y="138.8857">hash : String</text><polygon fill="none" points="33,147.8359,29,153.8359,37,153.8359" style="stroke:#1963A0;stroke-width:1.0;"/><text fill="#000000" font-family="sans-serif" font-size="14" lengthAdjust="spacing" textLength="408" x="42" y="155.1826">prepareMessageValidators : CopyOnWriteArrayList&lt;String&gt;</text><polygon fill="none" points="33,164.1328,29,170.1328,37,170.1328" style="stroke:#1963A0;stroke-width:1.0;"/><text fill="#000000" font-family="sans-serif" font-size="14" lengthAdjust="spacing" textLength="183" x="42" y="171.4795">previousblockhash : String</text><polygon fill="none" points="33,180.4297,29,186.4297,37,186.4297" style="stroke:#1963A0;stroke-width:1.0;"/><text fill="#000000" font-family="sans-serif" font-size="14" lengthAdjust="spacing" textLength="116" x="42" y="187.7764">proposer : String</text><polygon fill="none" points="33,196.7266,29,202.7266,37,202.7266" style="stroke:#1963A0;stroke-width:1.0;"/><text fill="#000000" font-family="sans-serif" font-size="14" lengthAdjust="spacing" textLength="89" x="42" y="204.0732">roundno : int</text><polygon fill="none" points="33,213.0234,29,219.0234,37,219.0234" style="stroke:#1963A0;stroke-width:1.0;"/><text fill="#000000" font-family="sans-serif" font-size="14" lengthAdjust="spacing" textLength="118" x="42" y="220.3701">signature : String</text><polygon fill="none" points="33,229.3203,29,235.3203,37,235.3203" style="stroke:#1963A0;stroke-width:1.0;"/><text fill="#000000" font-family="sans-serif" font-size="14" lengthAdjust="spacing" textLength="350" x="42" y="236.667">transactions : CopyOnWriteArrayList&lt;Transaction&gt;</text><line style="stroke:#181818;stroke-width:0.5;" x1="23" x2="1327" y1="243.9688" y2="243.9688"/><ellipse cx="33" cy="257.6172" fill="#84BE84" rx="3" ry="3" style="stroke:#038048;stroke-width:1.0;"/><text fill="#000000" font-family="sans-serif" font-size="14" lengthAdjust="spacing" textLength="48" x="42" y="260.9639">Block()</text><ellipse cx="33" cy="273.9141" fill="#84BE84" rx="3" ry="3" style="stroke:#038048;stroke-width:1.0;"/><text fill="#000000" font-family="sans-serif" font-size="14" lengthAdjust="spacing" textLength="1280" x="42" y="277.2607">Block(timestamp : Timestamp, previousblockhash : String, currentblockhash : String, data : CopyOnWriteArrayList&lt;Transaction&gt;, blockproposer : String, signature : String, blocknum : int)</text><ellipse cx="33" cy="290.2109" fill="#84BE84" rx="3" ry="3" style="stroke:#038048;stroke-width:1.0;"/><text fill="#000000" font-family="sans-serif" font-size="14" lengthAdjust="spacing" text-decoration="underline" textLength="660" x="42" y="293.5576">createBlock(lastBlock : Block, data : CopyOnWriteArrayList&lt;Transaction&gt;, wallet : Wallet) : Block</text><ellipse cx="33" cy="306.5078" fill="#84BE84" rx="3" ry="3" style="stroke:#038048;stroke-width:1.0;"/><text fill="#000000" font-family="sans-serif" font-size="14" lengthAdjust="spacing" text-decoration="underline" textLength="287" x="42" y="309.8545">generateBlockHash(block : Block) : String</text><ellipse cx="33" cy="322.8047" fill="#84BE84" rx="3" ry="3" style="stroke:#038048;stroke-width:1.0;"/><text fill="#000000" font-family="sans-serif" font-size="14" lengthAdjust="spacing" text-decoration="underline" textLength="706" x="42" y="326.1514">generateBlockHash(lastblockHash : String, transactions : List&lt;Transaction&gt;, proposer : String) : String</text><ellipse cx="33" cy="339.1016" fill="#84BE84" rx="3" ry="3" style="stroke:#038048;stroke-width:1.0;"/><text fill="#000000" font-family="sans-serif" font-size="14" lengthAdjust="spacing" text-decoration="underline" textLength="181" x="42" y="342.4482">generateGenesis() : Block</text><ellipse cx="33" cy="355.3984" fill="#84BE84" rx="3" ry="3" style="stroke:#038048;stroke-width:1.0;"/><text fill="#000000" font-family="sans-serif" font-size="14" lengthAdjust="spacing" textLength="368" x="42" y="358.7451">getBlockData() : CopyOnWriteArrayList&lt;Transaction&gt;</text><ellipse cx="33" cy="371.6953" fill="#84BE84" rx="3" ry="3" style="stroke:#038048;stroke-width:1.0;"/><text fill="#000000" font-family="sans-serif" font-size="14" lengthAdjust="spacing" textLength="171" x="42" y="375.042">getBlockDetails() : String</text><ellipse cx="33" cy="387.9922" fill="#84BE84" rx="3" ry="3" style="stroke:#038048;stroke-width:1.0;"/><text fill="#000000" font-family="sans-serif" font-size="14" lengthAdjust="spacing" textLength="159" x="42" y="391.3389">getBlockHash() : String</text><ellipse cx="33" cy="404.2891" fill="#84BE84" rx="3" ry="3" style="stroke:#038048;stroke-width:1.0;"/><text fill="#000000" font-family="sans-serif" font-size="14" lengthAdjust="spacing" textLength="156" x="42" y="407.6357">getBlockNumber() : int</text><ellipse cx="33" cy="420.5859" fill="#84BE84" rx="3" ry="3" style="stroke:#038048;stroke-width:1.0;"/><text fill="#000000" font-family="sans-serif" font-size="14" lengthAdjust="spacing" textLength="187" x="42" y="423.9326">getBlockProposer() : String</text><ellipse cx="33" cy="436.8828" fill="#84BE84" rx="3" ry="3" style="stroke:#038048;stroke-width:1.0;"/><text fill="#000000" font-family="sans-serif" font-size="14" lengthAdjust="spacing" textLength="190" x="42" y="440.2295">getBlockSignature() : String</text><ellipse cx="33" cy="453.1797" fill="#84BE84" rx="3" ry="3" style="stroke:#038048;stroke-width:1.0;"/><text fill="#000000" font-family="sans-serif" font-size="14" lengthAdjust="spacing" textLength="238" x="42" y="456.5264">getBlockTimestamp() : Timestamp</text><ellipse cx="33" cy="469.4766" fill="#84BE84" rx="3" ry="3" style="stroke:#038048;stroke-width:1.0;"/><text fill="#000000" font-family="sans-serif" font-size="14" lengthAdjust="spacing" textLength="155" x="42" y="472.8232">getBlocknumber() : int</text><ellipse cx="33" cy="485.7734" fill="#84BE84" rx="3" ry="3" style="stroke:#038048;stroke-width:1.0;"/><text fill="#000000" font-family="sans-serif" font-size="14" lengthAdjust="spacing" textLength="191" x="42" y="489.1201">getBlocktime() : Timestamp</text><ellipse cx="33" cy="502.0703" fill="#84BE84" rx="3" ry="3" style="stroke:#038048;stroke-width:1.0;"/><text fill="#000000" font-family="sans-serif" font-size="14" lengthAdjust="spacing" textLength="381" x="42" y="505.417">getCommitMessages() : CopyOnWriteArrayList&lt;String&gt;</text><ellipse cx="33" cy="518.3672" fill="#84BE84" rx="3" ry="3" style="stroke:#038048;stroke-width:1.0;"/><text fill="#000000" font-family="sans-serif" font-size="14" lengthAdjust="spacing" textLength="121" x="42" y="521.7139">getHash() : String</text><ellipse cx="33" cy="534.6641" fill="#84BE84" rx="3" ry="3" style="stroke:#038048;stroke-width:1.0;"/><text fill="#000000" font-family="sans-serif" font-size="14" lengthAdjust="spacing" textLength="187" x="42" y="538.0107">getLastBlockHash() : String</text><ellipse cx="33" cy="550.9609" fill="#84BE84" rx="3" ry="3" style="stroke:#038048;stroke-width:1.0;"/><text fill="#000000" font-family="sans-serif" font-size="14" lengthAdjust="spacing" textLength="382" x="42" y="554.3076">getPrepareMessages() : CopyOnWriteArrayList&lt;String&gt;</text><ellipse cx="33" cy="567.2578" fill="#84BE84" rx="3" ry="3" style="stroke:#038048;stroke-width:1.0;"/><text fill="#000000" font-family="sans-serif" font-size="14" lengthAdjust="spacing" textLength="216" x="42" y="570.6045">getPreviousblockhash() : String</text><ellipse cx="33" cy="583.5547" fill="#84BE84" rx="3" ry="3" style="stroke:#038048;stroke-width:1.0;"/><text fill="#000000" font-family="sans-serif" font-size="14" lengthAdjust="spacing" textLength="149" x="42" y="586.9014">getProposer() : String</text><ellipse cx="33" cy="599.8516" fill="#84BE84" rx="3" ry="3" style="stroke:#038048;stroke-width:1.0;"/><text fill="#000000" font-family="sans-serif" font-size="14" lengthAdjust="spacing" textLength="128" x="42" y="603.1982">getRoundNo() : int</text><ellipse cx="33" cy="616.1484" fill="#84BE84" rx="3" ry="3" style="stroke:#038048;stroke-width:1.0;"/><text fill="#000000" font-family="sans-serif" font-size="14" lengthAdjust="spacing" textLength="152" x="42" y="619.4951">getSignature() : String</text><ellipse cx="33" cy="632.4453" fill="#84BE84" rx="3" ry="3" style="stroke:#038048;stroke-width:1.0;"/><text fill="#000000" font-family="sans-serif" font-size="14" lengthAdjust="spacing" textLength="387" x="42" y="635.792">getTransactions() : CopyOnWriteArrayList&lt;Transaction&gt;</text><ellipse cx="33" cy="648.7422" fill="#84BE84" rx="3" ry="3" style="stroke:#038048;stroke-width:1.0;"/><text fill="#000000" font-family="sans-serif" font-size="14" lengthAdjust="spacing" textLength="245" x="42" y="652.0889">setBlocknumber(blocknumber : int)</text><ellipse cx="33" cy="665.0391" fill="#84BE84" rx="3" ry="3" style="stroke:#038048;stroke-width:1.0;"/><text fill="#000000" font-family="sans-serif" font-size="14" lengthAdjust="spacing" textLength="257" x="42" y="668.3857">setBlocktime(blocktime : Timestamp)</text><ellipse cx="33" cy="681.3359" fill="#84BE84" rx="3" ry="3" style="stroke:#038048;stroke-width:1.0;"/><text fill="#000000" font-family="sans-serif" font-size="14" lengthAdjust="spacing" textLength="502" x="42" y="684.6826">setCommitMessages(commitMessages : CopyOnWriteArrayList&lt;String&gt;)</text><ellipse cx="33" cy="697.6328" fill="#84BE84" rx="3" ry="3" style="stroke:#038048;stroke-width:1.0;"/><text fill="#000000" font-family="sans-serif" font-size="14" lengthAdjust="spacing" textLength="154" x="42" y="700.9795">setHash(hash : String)</text><ellipse cx="33" cy="713.9297" fill="#84BE84" rx="3" ry="3" style="stroke:#038048;stroke-width:1.0;"/><text fill="#000000" font-family="sans-serif" font-size="14" lengthAdjust="spacing" textLength="506" x="42" y="717.2764">setPrepareMessages(prepareMessages : CopyOnWriteArrayList&lt;String&gt;)</text><ellipse cx="33" cy="730.2266" fill="#84BE84" rx="3" ry="3" style="stroke:#038048;stroke-width:1.0;"/><text fill="#000000" font-family="sans-serif" font-size="14" lengthAdjust="spacing" textLength="345" x="42" y="733.5732">setPreviousblockhash(previousblockhash : String)</text><ellipse cx="33" cy="746.5234" fill="#84BE84" rx="3" ry="3" style="stroke:#038048;stroke-width:1.0;"/><text fill="#000000" font-family="sans-serif" font-size="14" lengthAdjust="spacing" textLength="211" x="42" y="749.8701">setProposer(proposer : String)</text><ellipse cx="33" cy="762.8203" fill="#84BE84" rx="3" ry="3" style="stroke:#038048;stroke-width:1.0;"/><text fill="#000000" font-family="sans-serif" font-size="14" lengthAdjust="spacing" textLength="186" x="42" y="766.167">setRoundNo(roundno : int)</text><ellipse cx="33" cy="779.1172" fill="#84BE84" rx="3" ry="3" style="stroke:#038048;stroke-width:1.0;"/><text fill="#000000" font-family="sans-serif" font-size="14" lengthAdjust="spacing" textLength="216" x="42" y="782.4639">setSignature(signature : String)</text><ellipse cx="33" cy="795.4141" fill="#84BE84" rx="3" ry="3" style="stroke:#038048;stroke-width:1.0;"/><text fill="#000000" font-family="sans-serif" font-size="14" lengthAdjust="spacing" textLength="471" x="42" y="798.7607">setTransactions(transactions : CopyOnWriteArrayList&lt;Transaction&gt;)</text><ellipse cx="33" cy="811.7109" fill="#84BE84" rx="3" ry="3" style="stroke:#038048;stroke-width:1.0;"/><text fill="#000000" font-family="sans-serif" font-size="14" lengthAdjust="spacing" text-decoration="underline" textLength="391" x="42" y="815.0576">signBlockHash(blockHash : String, wallet : Wallet) : String</text><ellipse cx="33" cy="828.0078" fill="#84BE84" rx="3" ry="3" style="stroke:#038048;stroke-width:1.0;"/><text fill="#000000" font-family="sans-serif" font-size="14" lengthAdjust="spacing" text-decoration="underline" textLength="240" x="42" y="831.3545">verifyBlock(block : Block) : boolean</text><ellipse cx="33" cy="844.3047" fill="#84BE84" rx="3" ry="3" style="stroke:#038048;stroke-width:1.0;"/><text fill="#000000" font-family="sans-serif" font-size="14" lengthAdjust="spacing" text-decoration="underline" textLength="389" x="42" y="847.6514">verifyProposer(block : Block, proposer : String) : boolean</text></g><!--MD5=[a190b5b17d5900f01628020fd9000353]
class BlockPool--><g id="elem_BlockPool"><rect codeLine="51" fill="#F1F1F1" height="194.6719" id="BlockPool" rx="2.5" ry="2.5" style="stroke:#181818;stroke-width:0.5;" width="326" x="1363" y="350.5"/><ellipse cx="1487.75" cy="366.5" fill="#ADD1B2" rx="11" ry="11" style="stroke:#181818;stroke-width:1.0;"/><path d="M1490.7188,372.1406 Q1490.1406,372.4375 1489.5,372.5781 Q1488.8594,372.7344 1488.1563,372.7344 Q1485.6563,372.7344 1484.3281,371.0938 Q1483.0156,369.4375 1483.0156,366.3125 Q1483.0156,363.1875 1484.3281,361.5313 Q1485.6563,359.875 1488.1563,359.875 Q1488.8594,359.875 1489.5,360.0313 Q1490.1563,360.1875 1490.7188,360.4844 L1490.7188,363.2031 Q1490.0938,362.625 1489.5,362.3594 Q1488.9063,362.0781 1488.2813,362.0781 Q1486.9375,362.0781 1486.25,363.1563 Q1485.5625,364.2188 1485.5625,366.3125 Q1485.5625,368.4063 1486.25,369.4844 Q1486.9375,370.5469 1488.2813,370.5469 Q1488.9063,370.5469 1489.5,370.2813 Q1490.0938,370 1490.7188,369.4219 L1490.7188,372.1406 Z " fill="#000000"/><text fill="#000000" font-family="sans-serif" font-size="14" lengthAdjust="spacing" textLength="68" x="1508.25" y="371.3467">BlockPool</text><line style="stroke:#181818;stroke-width:0.5;" x1="1364" x2="1688" y1="382.5" y2="382.5"/><ellipse cx="1374" cy="396.1484" fill="none" rx="3" ry="3" style="stroke:#038048;stroke-width:1.0;"/><text fill="#000000" font-family="sans-serif" font-size="14" lengthAdjust="spacing" textLength="290" x="1383" y="399.4951">blockIds : CopyOnWriteArrayList&lt;Integer&gt;</text><polygon fill="none" points="1374,408.4453,1370,414.4453,1378,414.4453" style="stroke:#1963A0;stroke-width:1.0;"/><text fill="#000000" font-family="sans-serif" font-size="14" lengthAdjust="spacing" textLength="267" x="1383" y="415.792">blocks : CopyOnWriteArrayList&lt;Block&gt;</text><line style="stroke:#181818;stroke-width:0.5;" x1="1364" x2="1688" y1="423.0938" y2="423.0938"/><ellipse cx="1374" cy="436.7422" fill="#84BE84" rx="3" ry="3" style="stroke:#038048;stroke-width:1.0;"/><text fill="#000000" font-family="sans-serif" font-size="14" lengthAdjust="spacing" textLength="78" x="1383" y="440.0889">BlockPool()</text><ellipse cx="1374" cy="453.0391" fill="#84BE84" rx="3" ry="3" style="stroke:#038048;stroke-width:1.0;"/><text fill="#000000" font-family="sans-serif" font-size="14" lengthAdjust="spacing" textLength="162" x="1383" y="456.3857">addBlock(block : Block)</text><ellipse cx="1374" cy="469.3359" fill="#84BE84" rx="3" ry="3" style="stroke:#038048;stroke-width:1.0;"/><text fill="#000000" font-family="sans-serif" font-size="14" lengthAdjust="spacing" textLength="256" x="1383" y="472.6826">blockExists(inblock : Block) : boolean</text><ellipse cx="1374" cy="485.6328" fill="#84BE84" rx="3" ry="3" style="stroke:#038048;stroke-width:1.0;"/><text fill="#000000" font-family="sans-serif" font-size="14" lengthAdjust="spacing" textLength="111" x="1383" y="488.9795">clearBlockPool()</text><ellipse cx="1374" cy="501.9297" fill="#84BE84" rx="3" ry="3" style="stroke:#038048;stroke-width:1.0;"/><text fill="#000000" font-family="sans-serif" font-size="14" lengthAdjust="spacing" textLength="300" x="1383" y="505.2764">getBlockforHash(blockHash : String) : Block</text><ellipse cx="1374" cy="518.2266" fill="#84BE84" rx="3" ry="3" style="stroke:#038048;stroke-width:1.0;"/><text fill="#000000" font-family="sans-serif" font-size="14" lengthAdjust="spacing" textLength="177" x="1383" y="521.5732">getBlocks() : List&lt;Block&gt;</text><ellipse cx="1374" cy="534.5234" fill="#84BE84" rx="3" ry="3" style="stroke:#038048;stroke-width:1.0;"/><text fill="#000000" font-family="sans-serif" font-size="14" lengthAdjust="spacing" textLength="236" x="1383" y="537.8701">removeBlock(inblockhash : String)</text></g><!--MD5=[04d4f9b1edda2793a31ab6271d9214d1]
class Blockchain--><g id="elem_Blockchain"><rect codeLine="62" fill="#F1F1F1" height="439.125" id="Blockchain" rx="2.5" ry="2.5" style="stroke:#181818;stroke-width:0.5;" width="664" x="215" y="915"/><ellipse cx="505.25" cy="931" fill="#ADD1B2" rx="11" ry="11" style="stroke:#181818;stroke-width:1.0;"/><path d="M508.2188,936.6406 Q507.6406,936.9375 507,937.0781 Q506.3594,937.2344 505.6563,937.2344 Q503.1563,937.2344 501.8281,935.5938 Q500.5156,933.9375 500.5156,930.8125 Q500.5156,927.6875 501.8281,926.0313 Q503.1563,924.375 505.6563,924.375 Q506.3594,924.375 507,924.5313 Q507.6563,924.6875 508.2188,924.9844 L508.2188,927.7031 Q507.5938,927.125 507,926.8594 Q506.4063,926.5781 505.7813,926.5781 Q504.4375,926.5781 503.75,927.6563 Q503.0625,928.7188 503.0625,930.8125 Q503.0625,932.9063 503.75,933.9844 Q504.4375,935.0469 505.7813,935.0469 Q506.4063,935.0469 507,934.7813 Q507.5938,934.5 508.2188,933.9219 L508.2188,936.6406 Z " fill="#000000"/><text fill="#000000" font-family="sans-serif" font-size="14" lengthAdjust="spacing" textLength="75" x="525.75" y="935.8467">Blockchain</text><line style="stroke:#181818;stroke-width:0.5;" x1="216" x2="878" y1="947" y2="947"/><ellipse cx="226" cy="960.6484" fill="none" rx="3" ry="3" style="stroke:#038048;stroke-width:1.0;"/><text fill="#000000" font-family="sans-serif" font-size="14" lengthAdjust="spacing" textLength="290" x="235" y="963.9951">blockIds : CopyOnWriteArrayList&lt;Integer&gt;</text><polygon fill="none" points="226,972.9453,222,978.9453,230,978.9453" style="stroke:#1963A0;stroke-width:1.0;"/><text fill="#000000" font-family="sans-serif" font-size="14" lengthAdjust="spacing" textLength="259" x="235" y="980.292">chain : CopyOnWriteArrayList&lt;Block&gt;</text><polygon fill="none" points="226,989.2422,222,995.2422,230,995.2422" style="stroke:#1963A0;stroke-width:1.0;"/><text fill="#000000" font-family="sans-serif" font-size="14" lengthAdjust="spacing" textLength="186" x="235" y="996.5889">nonValidator : NonValidator</text><polygon fill="none" points="226,1005.5391,222,1011.5391,230,1011.5391" style="stroke:#1963A0;stroke-width:1.0;"/><text fill="#000000" font-family="sans-serif" font-size="14" lengthAdjust="spacing" textLength="318" x="235" y="1012.8857">nonValidators : CopyOnWriteArrayList&lt;String&gt;</text><ellipse cx="226" cy="1025.8359" fill="none" rx="3" ry="3" style="stroke:#038048;stroke-width:1.0;"/><text fill="#000000" font-family="sans-serif" font-size="14" lengthAdjust="spacing" textLength="206" x="235" y="1029.1826">roundCounter : AtomicInteger</text><polygon fill="none" points="226,1038.1328,222,1044.1328,230,1044.1328" style="stroke:#1963A0;stroke-width:1.0;"/><text fill="#000000" font-family="sans-serif" font-size="14" lengthAdjust="spacing" textLength="129" x="235" y="1045.4795">validator : Validator</text><polygon fill="none" points="226,1054.4297,222,1060.4297,230,1060.4297" style="stroke:#1963A0;stroke-width:1.0;"/><text fill="#000000" font-family="sans-serif" font-size="14" lengthAdjust="spacing" textLength="289" x="235" y="1061.7764">validators : CopyOnWriteArrayList&lt;String&gt;</text><line style="stroke:#181818;stroke-width:0.5;" x1="216" x2="878" y1="1069.0781" y2="1069.0781"/><ellipse cx="226" cy="1082.7266" fill="#84BE84" rx="3" ry="3" style="stroke:#038048;stroke-width:1.0;"/><text fill="#000000" font-family="sans-serif" font-size="14" lengthAdjust="spacing" textLength="85" x="235" y="1086.0732">Blockchain()</text><ellipse cx="226" cy="1099.0234" fill="#84BE84" rx="3" ry="3" style="stroke:#038048;stroke-width:1.0;"/><text fill="#000000" font-family="sans-serif" font-size="14" lengthAdjust="spacing" textLength="408" x="235" y="1102.3701">Blockchain(validator : Validator, nonValidator : NonValidator)</text><ellipse cx="226" cy="1115.3203" fill="#84BE84" rx="3" ry="3" style="stroke:#038048;stroke-width:1.0;"/><text fill="#000000" font-family="sans-serif" font-size="14" lengthAdjust="spacing" textLength="213" x="235" y="1118.667">addBlock(block : Block) : Block</text><ellipse cx="226" cy="1131.6172" fill="#84BE84" rx="3" ry="3" style="stroke:#038048;stroke-width:1.0;"/><text fill="#000000" font-family="sans-serif" font-size="14" lengthAdjust="spacing" textLength="638" x="235" y="1134.9639">addUpdatedBlock(block : Block, blockPool : BlockPool, pbftMessagePool : BFTMessagePool)</text><ellipse cx="226" cy="1147.9141" fill="#84BE84" rx="3" ry="3" style="stroke:#038048;stroke-width:1.0;"/><text fill="#000000" font-family="sans-serif" font-size="14" lengthAdjust="spacing" textLength="594" x="235" y="1151.2607">createBlock(transactions : CopyOnWriteArrayList&lt;Transaction&gt;, wallet : Wallet) : Block</text><ellipse cx="226" cy="1164.2109" fill="#84BE84" rx="3" ry="3" style="stroke:#038048;stroke-width:1.0;"/><text fill="#000000" font-family="sans-serif" font-size="14" lengthAdjust="spacing" textLength="294" x="235" y="1167.5576">getChain() : CopyOnWriteArrayList&lt;Block&gt;</text><ellipse cx="226" cy="1180.5078" fill="#84BE84" rx="3" ry="3" style="stroke:#038048;stroke-width:1.0;"/><text fill="#000000" font-family="sans-serif" font-size="14" lengthAdjust="spacing" textLength="352" x="235" y="1183.8545">getNonValidators() : CopyOnWriteArrayList&lt;String&gt;</text><ellipse cx="226" cy="1196.8047" fill="#84BE84" rx="3" ry="3" style="stroke:#038048;stroke-width:1.0;"/><text fill="#000000" font-family="sans-serif" font-size="14" lengthAdjust="spacing" textLength="149" x="235" y="1200.1514">getProposer() : String</text><ellipse cx="226" cy="1213.1016" fill="#84BE84" rx="3" ry="3" style="stroke:#038048;stroke-width:1.0;"/><text fill="#000000" font-family="sans-serif" font-size="14" lengthAdjust="spacing" textLength="249" x="235" y="1216.4482">getRoundChangeProposer() : String</text><ellipse cx="226" cy="1229.3984" fill="#84BE84" rx="3" ry="3" style="stroke:#038048;stroke-width:1.0;"/><text fill="#000000" font-family="sans-serif" font-size="14" lengthAdjust="spacing" textLength="165" x="235" y="1232.7451">getRoundCounter() : int</text><ellipse cx="226" cy="1245.6953" fill="#84BE84" rx="3" ry="3" style="stroke:#038048;stroke-width:1.0;"/><text fill="#000000" font-family="sans-serif" font-size="14" lengthAdjust="spacing" textLength="324" x="235" y="1249.042">getValidators() : CopyOnWriteArrayList&lt;String&gt;</text><ellipse cx="226" cy="1261.9922" fill="#84BE84" rx="3" ry="3" style="stroke:#038048;stroke-width:1.0;"/><text fill="#000000" font-family="sans-serif" font-size="14" lengthAdjust="spacing" textLength="182" x="235" y="1265.3389">incrementRoundCounter()</text><ellipse cx="226" cy="1278.2891" fill="#84BE84" rx="3" ry="3" style="stroke:#038048;stroke-width:1.0;"/><text fill="#000000" font-family="sans-serif" font-size="14" lengthAdjust="spacing" textLength="260" x="235" y="1281.6357">isValidBlock(inblock : Block) : boolean</text><ellipse cx="226" cy="1294.5859" fill="#84BE84" rx="3" ry="3" style="stroke:#038048;stroke-width:1.0;"/><text fill="#000000" font-family="sans-serif" font-size="14" lengthAdjust="spacing" textLength="330" x="235" y="1297.9326">setChain(chain : CopyOnWriteArrayList&lt;Block&gt;)</text><ellipse cx="226" cy="1310.8828" fill="#84BE84" rx="3" ry="3" style="stroke:#038048;stroke-width:1.0;"/><text fill="#000000" font-family="sans-serif" font-size="14" lengthAdjust="spacing" textLength="445" x="235" y="1314.2295">setNonValidators(nonValidators : CopyOnWriteArrayList&lt;String&gt;)</text><ellipse cx="226" cy="1327.1797" fill="#84BE84" rx="3" ry="3" style="stroke:#038048;stroke-width:1.0;"/><text fill="#000000" font-family="sans-serif" font-size="14" lengthAdjust="spacing" textLength="295" x="235" y="1330.5264">setRoundCounter(newRoundCounter : int)</text><ellipse cx="226" cy="1343.4766" fill="#84BE84" rx="3" ry="3" style="stroke:#038048;stroke-width:1.0;"/><text fill="#000000" font-family="sans-serif" font-size="14" lengthAdjust="spacing" textLength="388" x="235" y="1346.8232">setValidators(validators : CopyOnWriteArrayList&lt;String&gt;)</text></g><!--MD5=[05ebf61412361dd348227f74f7358350]
class TransactionPool--><g id="elem_TransactionPool"><rect codeLine="88" fill="#F1F1F1" height="390.2344" id="TransactionPool" rx="2.5" ry="2.5" style="stroke:#181818;stroke-width:0.5;" width="775" x="914.5" y="939.5"/><ellipse cx="1242.25" cy="955.5" fill="#ADD1B2" rx="11" ry="11" style="stroke:#181818;stroke-width:1.0;"/><path d="M1245.2188,961.1406 Q1244.6406,961.4375 1244,961.5781 Q1243.3594,961.7344 1242.6563,961.7344 Q1240.1563,961.7344 1238.8281,960.0938 Q1237.5156,958.4375 1237.5156,955.3125 Q1237.5156,952.1875 1238.8281,950.5313 Q1240.1563,948.875 1242.6563,948.875 Q1243.3594,948.875 1244,949.0313 Q1244.6563,949.1875 1245.2188,949.4844 L1245.2188,952.2031 Q1244.5938,951.625 1244,951.3594 Q1243.4063,951.0781 1242.7813,951.0781 Q1241.4375,951.0781 1240.75,952.1563 Q1240.0625,953.2188 1240.0625,955.3125 Q1240.0625,957.4063 1240.75,958.4844 Q1241.4375,959.5469 1242.7813,959.5469 Q1243.4063,959.5469 1244,959.2813 Q1244.5938,959 1245.2188,958.4219 L1245.2188,961.1406 Z " fill="#000000"/><text fill="#000000" font-family="sans-serif" font-size="14" lengthAdjust="spacing" textLength="111" x="1262.75" y="960.3467">TransactionPool</text><line style="stroke:#181818;stroke-width:0.5;" x1="915.5" x2="1688.5" y1="971.5" y2="971.5"/><ellipse cx="925.5" cy="985.1484" fill="none" rx="3" ry="3" style="stroke:#038048;stroke-width:1.0;"/><text fill="#000000" font-family="sans-serif" font-size="14" lengthAdjust="spacing" textLength="162" x="934.5" y="988.4951">blockchain : Blockchain</text><ellipse cx="925.5" cy="1001.4453" fill="none" rx="3" ry="3" style="stroke:#038048;stroke-width:1.0;"/><text fill="#000000" font-family="sans-serif" font-size="14" lengthAdjust="spacing" textLength="394" x="934.5" y="1004.792">confirmedTransactionIds : CopyOnWriteArrayList&lt;String&gt;</text><ellipse cx="925.5" cy="1017.7422" fill="none" rx="3" ry="3" style="stroke:#038048;stroke-width:1.0;"/><text fill="#000000" font-family="sans-serif" font-size="14" lengthAdjust="spacing" textLength="204" x="934.5" y="1021.0889">roundcounter : AtomicInteger</text><ellipse cx="925.5" cy="1034.0391" fill="none" rx="3" ry="3" style="stroke:#038048;stroke-width:1.0;"/><text fill="#000000" font-family="sans-serif" font-size="14" lengthAdjust="spacing" textLength="347" x="934.5" y="1037.3857">transactionRoundStatus : Map&lt;Integer, Boolean&gt;</text><ellipse cx="925.5" cy="1050.3359" fill="none" rx="3" ry="3" style="stroke:#038048;stroke-width:1.0;"/><text fill="#000000" font-family="sans-serif" font-size="14" lengthAdjust="spacing" textLength="506" x="934.5" y="1053.6826">transactionStorage : Map&lt;Integer, CopyOnWriteArrayList&lt;Transaction&gt;&gt;</text><ellipse cx="925.5" cy="1066.6328" fill="none" rx="3" ry="3" style="stroke:#038048;stroke-width:1.0;"/><text fill="#000000" font-family="sans-serif" font-size="14" lengthAdjust="spacing" textLength="177" x="934.5" y="1069.9795">transactionThreshold : int</text><line style="stroke:#181818;stroke-width:0.5;" x1="915.5" x2="1688.5" y1="1077.2813" y2="1077.2813"/><ellipse cx="925.5" cy="1090.9297" fill="#84BE84" rx="3" ry="3" style="stroke:#038048;stroke-width:1.0;"/><text fill="#000000" font-family="sans-serif" font-size="14" lengthAdjust="spacing" textLength="121" x="934.5" y="1094.2764">TransactionPool()</text><ellipse cx="925.5" cy="1107.2266" fill="#84BE84" rx="3" ry="3" style="stroke:#038048;stroke-width:1.0;"/><text fill="#000000" font-family="sans-serif" font-size="14" lengthAdjust="spacing" textLength="357" x="934.5" y="1110.5732">addTransaction(transaction : Transaction) : boolean</text><ellipse cx="925.5" cy="1123.5234" fill="#84BE84" rx="3" ry="3" style="stroke:#038048;stroke-width:1.0;"/><text fill="#000000" font-family="sans-serif" font-size="14" lengthAdjust="spacing" textLength="263" x="934.5" y="1126.8701">addconfirmedTransactionId(id : String)</text><ellipse cx="925.5" cy="1139.8203" fill="#84BE84" rx="3" ry="3" style="stroke:#038048;stroke-width:1.0;"/><text fill="#000000" font-family="sans-serif" font-size="14" lengthAdjust="spacing" textLength="326" x="934.5" y="1143.167">addconfirmedTransactionIds(ids : List&lt;String&gt;)</text><ellipse cx="925.5" cy="1156.1172" fill="#84BE84" rx="3" ry="3" style="stroke:#038048;stroke-width:1.0;"/><text fill="#000000" font-family="sans-serif" font-size="14" lengthAdjust="spacing" textLength="154" x="934.5" y="1159.4639">clearTransactionPool()</text><ellipse cx="925.5" cy="1172.4141" fill="#84BE84" rx="3" ry="3" style="stroke:#038048;stroke-width:1.0;"/><text fill="#000000" font-family="sans-serif" font-size="14" lengthAdjust="spacing" textLength="749" x="934.5" y="1175.7607">clearTransactionPoolFromIncomingBlock(roundno : int, intransactions : CopyOnWriteArrayList&lt;Transaction&gt;)</text><ellipse cx="925.5" cy="1188.7109" fill="#84BE84" rx="3" ry="3" style="stroke:#038048;stroke-width:1.0;"/><text fill="#000000" font-family="sans-serif" font-size="14" lengthAdjust="spacing" textLength="346" x="934.5" y="1192.0576">confirmedTransactionIdexists(id : String) : boolean</text><ellipse cx="925.5" cy="1205.0078" fill="#84BE84" rx="3" ry="3" style="stroke:#038048;stroke-width:1.0;"/><text fill="#000000" font-family="sans-serif" font-size="14" lengthAdjust="spacing" textLength="409" x="934.5" y="1208.3545">confirmedTransactionIdsexists(ids : List&lt;String&gt;) : boolean</text><ellipse cx="925.5" cy="1221.3047" fill="#84BE84" rx="3" ry="3" style="stroke:#038048;stroke-width:1.0;"/><text fill="#000000" font-family="sans-serif" font-size="14" lengthAdjust="spacing" textLength="384" x="934.5" y="1224.6514">getTransactionRoundStatus() : Map&lt;Integer, Boolean&gt;</text><ellipse cx="925.5" cy="1237.6016" fill="#84BE84" rx="3" ry="3" style="stroke:#038048;stroke-width:1.0;"/><text fill="#000000" font-family="sans-serif" font-size="14" lengthAdjust="spacing" textLength="214" x="934.5" y="1240.9482">getTransactionThreshold() : int</text><ellipse cx="925.5" cy="1253.8984" fill="#84BE84" rx="3" ry="3" style="stroke:#038048;stroke-width:1.0;"/><text fill="#000000" font-family="sans-serif" font-size="14" lengthAdjust="spacing" textLength="577" x="934.5" y="1257.2451">getTransactions(roundno : int, wallet : Wallet) : CopyOnWriteArrayList&lt;Transaction&gt;</text><ellipse cx="925.5" cy="1270.1953" fill="#84BE84" rx="3" ry="3" style="stroke:#038048;stroke-width:1.0;"/><text fill="#000000" font-family="sans-serif" font-size="14" lengthAdjust="spacing" textLength="360" x="934.5" y="1273.542">setTransactionThreshold(transactionThreshold : int)</text><ellipse cx="925.5" cy="1286.4922" fill="#84BE84" rx="3" ry="3" style="stroke:#038048;stroke-width:1.0;"/><text fill="#000000" font-family="sans-serif" font-size="14" lengthAdjust="spacing" textLength="568" x="934.5" y="1289.8389">setTransactions(transactions : CopyOnWriteArrayList&lt;Transaction&gt;, roundno : int)</text><ellipse cx="925.5" cy="1302.7891" fill="#84BE84" rx="3" ry="3" style="stroke:#038048;stroke-width:1.0;"/><text fill="#000000" font-family="sans-serif" font-size="14" lengthAdjust="spacing" textLength="476" x="934.5" y="1306.1357">transactionExists(intransaction : Transaction, roundno : int) : boolean</text><ellipse cx="925.5" cy="1319.0859" fill="#84BE84" rx="3" ry="3" style="stroke:#038048;stroke-width:1.0;"/><text fill="#000000" font-family="sans-serif" font-size="14" lengthAdjust="spacing" textLength="366" x="934.5" y="1322.4326">verifyTransaction(transaction : Transaction) : boolean</text></g><!--MD5=[db841e630f271a86b0f6f729c85fefa5]
@startuml
package org.renaultleat.chain {
  class Block {
    ~ blocknumber : int
    ~ blocktime : Timestamp
    ~ commitMessageValidators : CopyOnWriteArrayList<String>
    ~ hash : String
    ~ prepareMessageValidators : CopyOnWriteArrayList<String>
    ~ previousblockhash : String
    ~ proposer : String
    ~ roundno : int
    ~ signature : String
    ~ transactions : CopyOnWriteArrayList<Transaction>
    + Block()
    + Block(timestamp : Timestamp, previousblockhash : String, currentblockhash : String, data : CopyOnWriteArrayList<Transaction>, blockproposer : String, signature : String, blocknum : int)
    + createBlock(lastBlock : Block, data : CopyOnWriteArrayList<Transaction>, wallet : Wallet) : Block {static}
    + generateBlockHash(block : Block) : String {static}
    + generateBlockHash(lastblockHash : String, transactions : List<Transaction>, proposer : String) : String {static}
    + generateGenesis() : Block {static}
    + getBlockData() : CopyOnWriteArrayList<Transaction>
    + getBlockDetails() : String
    + getBlockHash() : String
    + getBlockNumber() : int
    + getBlockProposer() : String
    + getBlockSignature() : String
    + getBlockTimestamp() : Timestamp
    + getBlocknumber() : int
    + getBlocktime() : Timestamp
    + getCommitMessages() : CopyOnWriteArrayList<String>
    + getHash() : String
    + getLastBlockHash() : String
    + getPrepareMessages() : CopyOnWriteArrayList<String>
    + getPreviousblockhash() : String
    + getProposer() : String
    + getRoundNo() : int
    + getSignature() : String
    + getTransactions() : CopyOnWriteArrayList<Transaction>
    + setBlocknumber(blocknumber : int)
    + setBlocktime(blocktime : Timestamp)
    + setCommitMessages(commitMessages : CopyOnWriteArrayList<String>)
    + setHash(hash : String)
    + setPrepareMessages(prepareMessages : CopyOnWriteArrayList<String>)
    + setPreviousblockhash(previousblockhash : String)
    + setProposer(proposer : String)
    + setRoundNo(roundno : int)
    + setSignature(signature : String)
    + setTransactions(transactions : CopyOnWriteArrayList<Transaction>)
    + signBlockHash(blockHash : String, wallet : Wallet) : String {static}
    + verifyBlock(block : Block) : boolean {static}
    + verifyProposer(block : Block, proposer : String) : boolean {static}
  }
  class BlockPool {
    + blockIds : CopyOnWriteArrayList<Integer>
    ~ blocks : CopyOnWriteArrayList<Block>
    + BlockPool()
    + addBlock(block : Block)
    + blockExists(inblock : Block) : boolean
    + clearBlockPool()
    + getBlockforHash(blockHash : String) : Block
    + getBlocks() : List<Block>
    + removeBlock(inblockhash : String)
  }
  class Blockchain {
    + blockIds : CopyOnWriteArrayList<Integer>
    ~ chain : CopyOnWriteArrayList<Block>
    ~ nonValidator : NonValidator
    ~ nonValidators : CopyOnWriteArrayList<String>
    + roundCounter : AtomicInteger
    ~ validator : Validator
    ~ validators : CopyOnWriteArrayList<String>
    + Blockchain()
    + Blockchain(validator : Validator, nonValidator : NonValidator)
    + addBlock(block : Block) : Block
    + addUpdatedBlock(block : Block, blockPool : BlockPool, pbftMessagePool : BFTMessagePool)
    + createBlock(transactions : CopyOnWriteArrayList<Transaction>, wallet : Wallet) : Block
    + getChain() : CopyOnWriteArrayList<Block>
    + getNonValidators() : CopyOnWriteArrayList<String>
    + getProposer() : String
    + getRoundChangeProposer() : String
    + getRoundCounter() : int
    + getValidators() : CopyOnWriteArrayList<String>
    + incrementRoundCounter()
    + isValidBlock(inblock : Block) : boolean
    + setChain(chain : CopyOnWriteArrayList<Block>)
    + setNonValidators(nonValidators : CopyOnWriteArrayList<String>)
    + setRoundCounter(newRoundCounter : int)
    + setValidators(validators : CopyOnWriteArrayList<String>)
  }
  class TransactionPool {
    + blockchain : Blockchain
    + confirmedTransactionIds : CopyOnWriteArrayList<String>
    + roundcounter : AtomicInteger
    + transactionRoundStatus : Map<Integer, Boolean>
    + transactionStorage : Map<Integer, CopyOnWriteArrayList<Transaction>>
    + transactionThreshold : int
    + TransactionPool()
    + addTransaction(transaction : Transaction) : boolean
    + addconfirmedTransactionId(id : String)
    + addconfirmedTransactionIds(ids : List<String>)
    + clearTransactionPool()
    + clearTransactionPoolFromIncomingBlock(roundno : int, intransactions : CopyOnWriteArrayList<Transaction>)
    + confirmedTransactionIdexists(id : String) : boolean
    + confirmedTransactionIdsexists(ids : List<String>) : boolean
    + getTransactionRoundStatus() : Map<Integer, Boolean>
    + getTransactionThreshold() : int
    + getTransactions(roundno : int, wallet : Wallet) : CopyOnWriteArrayList<Transaction>
    + setTransactionThreshold(transactionThreshold : int)
    + setTransactions(transactions : CopyOnWriteArrayList<Transaction>, roundno : int)
    + transactionExists(intransaction : Transaction, roundno : int) : boolean
    + verifyTransaction(transaction : Transaction) : boolean
  }
}
@enduml

PlantUML version 1.2022.7(Mon Aug 22 19:01:30 CEST 2022)
(GPL source distribution)
Java Runtime: OpenJDK Runtime Environment
JVM: OpenJDK 64-Bit Server VM
Default Encoding: UTF-8
Language: en
Country: US
--></g></svg>